%TF.GenerationSoftware,KiCad,Pcbnew,7.0.6-1.fc38*%
%TF.CreationDate,2023-07-24T16:31:10-04:00*%
%TF.ProjectId,driver-pcb,64726976-6572-42d7-9063-622e6b696361,rev?*%
%TF.SameCoordinates,Original*%
%TF.FileFunction,Drillmap*%
%TF.FilePolarity,Positive*%
%FSLAX45Y45*%
G04 Gerber Fmt 4.5, Leading zero omitted, Abs format (unit mm)*
G04 Created by KiCad (PCBNEW 7.0.6-1.fc38) date 2023-07-24 16:31:10*
%MOMM*%
%LPD*%
G01*
G04 APERTURE LIST*
%ADD10C,0.100000*%
%ADD11C,0.200000*%
%ADD12C,0.150000*%
%ADD13C,0.180000*%
G04 APERTURE END LIST*
D10*
X16000000Y-14600000D02*
G75*
G03*
X16200000Y-14400000I0J200000D01*
G01*
X12000000Y-14400000D02*
G75*
G03*
X12200000Y-14600000I200000J0D01*
G01*
X12200000Y-4600000D02*
G75*
G03*
X12000000Y-4800000I0J-200000D01*
G01*
X16200000Y-4800000D02*
G75*
G03*
X16000000Y-4600000I-200000J0D01*
G01*
X12200000Y-4600000D02*
X16000000Y-4600000D01*
X12000000Y-14400000D02*
X12000000Y-4800000D01*
X16000000Y-14600000D02*
X12200000Y-14600000D01*
X16200000Y-4800000D02*
X16200000Y-14400000D01*
X12450000Y-14300000D02*
G75*
G03*
X12450000Y-14300000I-150000J0D01*
G01*
X16050000Y-14300000D02*
G75*
G03*
X16050000Y-14300000I-150000J0D01*
G01*
X16050000Y-10700000D02*
G75*
G03*
X16050000Y-10700000I-150000J0D01*
G01*
X12450000Y-10700000D02*
G75*
G03*
X12450000Y-10700000I-150000J0D01*
G01*
D11*
D12*
X13779500Y-5067000D02*
X13929500Y-5217000D01*
X13929500Y-5067000D02*
X13779500Y-5217000D01*
X14264500Y-5067000D02*
X14414500Y-5217000D01*
X14414500Y-5067000D02*
X14264500Y-5217000D01*
D13*
X13914500Y-4839000D02*
G75*
G03*
X13914500Y-4839000I-90000J0D01*
G01*
X14459500Y-4839000D02*
G75*
G03*
X14459500Y-4839000I-90000J0D01*
G01*
D11*
X12255777Y-14916484D02*
X12255777Y-14716484D01*
X12255777Y-14716484D02*
X12303396Y-14716484D01*
X12303396Y-14716484D02*
X12331967Y-14726008D01*
X12331967Y-14726008D02*
X12351015Y-14745055D01*
X12351015Y-14745055D02*
X12360539Y-14764103D01*
X12360539Y-14764103D02*
X12370062Y-14802198D01*
X12370062Y-14802198D02*
X12370062Y-14830769D01*
X12370062Y-14830769D02*
X12360539Y-14868865D01*
X12360539Y-14868865D02*
X12351015Y-14887912D01*
X12351015Y-14887912D02*
X12331967Y-14906960D01*
X12331967Y-14906960D02*
X12303396Y-14916484D01*
X12303396Y-14916484D02*
X12255777Y-14916484D01*
X12455777Y-14916484D02*
X12455777Y-14783150D01*
X12455777Y-14821246D02*
X12465301Y-14802198D01*
X12465301Y-14802198D02*
X12474824Y-14792674D01*
X12474824Y-14792674D02*
X12493872Y-14783150D01*
X12493872Y-14783150D02*
X12512920Y-14783150D01*
X12579586Y-14916484D02*
X12579586Y-14783150D01*
X12579586Y-14716484D02*
X12570062Y-14726008D01*
X12570062Y-14726008D02*
X12579586Y-14735531D01*
X12579586Y-14735531D02*
X12589110Y-14726008D01*
X12589110Y-14726008D02*
X12579586Y-14716484D01*
X12579586Y-14716484D02*
X12579586Y-14735531D01*
X12703396Y-14916484D02*
X12684348Y-14906960D01*
X12684348Y-14906960D02*
X12674824Y-14887912D01*
X12674824Y-14887912D02*
X12674824Y-14716484D01*
X12808158Y-14916484D02*
X12789110Y-14906960D01*
X12789110Y-14906960D02*
X12779586Y-14887912D01*
X12779586Y-14887912D02*
X12779586Y-14716484D01*
X13036729Y-14916484D02*
X13036729Y-14716484D01*
X13036729Y-14716484D02*
X13103396Y-14859341D01*
X13103396Y-14859341D02*
X13170062Y-14716484D01*
X13170062Y-14716484D02*
X13170062Y-14916484D01*
X13351015Y-14916484D02*
X13351015Y-14811722D01*
X13351015Y-14811722D02*
X13341491Y-14792674D01*
X13341491Y-14792674D02*
X13322443Y-14783150D01*
X13322443Y-14783150D02*
X13284348Y-14783150D01*
X13284348Y-14783150D02*
X13265301Y-14792674D01*
X13351015Y-14906960D02*
X13331967Y-14916484D01*
X13331967Y-14916484D02*
X13284348Y-14916484D01*
X13284348Y-14916484D02*
X13265301Y-14906960D01*
X13265301Y-14906960D02*
X13255777Y-14887912D01*
X13255777Y-14887912D02*
X13255777Y-14868865D01*
X13255777Y-14868865D02*
X13265301Y-14849817D01*
X13265301Y-14849817D02*
X13284348Y-14840293D01*
X13284348Y-14840293D02*
X13331967Y-14840293D01*
X13331967Y-14840293D02*
X13351015Y-14830769D01*
X13446253Y-14783150D02*
X13446253Y-14983150D01*
X13446253Y-14792674D02*
X13465301Y-14783150D01*
X13465301Y-14783150D02*
X13503396Y-14783150D01*
X13503396Y-14783150D02*
X13522443Y-14792674D01*
X13522443Y-14792674D02*
X13531967Y-14802198D01*
X13531967Y-14802198D02*
X13541491Y-14821246D01*
X13541491Y-14821246D02*
X13541491Y-14878388D01*
X13541491Y-14878388D02*
X13531967Y-14897436D01*
X13531967Y-14897436D02*
X13522443Y-14906960D01*
X13522443Y-14906960D02*
X13503396Y-14916484D01*
X13503396Y-14916484D02*
X13465301Y-14916484D01*
X13465301Y-14916484D02*
X13446253Y-14906960D01*
X13627205Y-14897436D02*
X13636729Y-14906960D01*
X13636729Y-14906960D02*
X13627205Y-14916484D01*
X13627205Y-14916484D02*
X13617682Y-14906960D01*
X13617682Y-14906960D02*
X13627205Y-14897436D01*
X13627205Y-14897436D02*
X13627205Y-14916484D01*
X13627205Y-14792674D02*
X13636729Y-14802198D01*
X13636729Y-14802198D02*
X13627205Y-14811722D01*
X13627205Y-14811722D02*
X13617682Y-14802198D01*
X13617682Y-14802198D02*
X13627205Y-14792674D01*
X13627205Y-14792674D02*
X13627205Y-14811722D01*
D12*
X11845000Y-15170000D02*
X11995000Y-15320000D01*
X11995000Y-15170000D02*
X11845000Y-15320000D01*
D11*
X12360539Y-15336484D02*
X12246253Y-15336484D01*
X12303396Y-15336484D02*
X12303396Y-15136484D01*
X12303396Y-15136484D02*
X12284348Y-15165055D01*
X12284348Y-15165055D02*
X12265301Y-15184103D01*
X12265301Y-15184103D02*
X12246253Y-15193627D01*
X12446253Y-15317436D02*
X12455777Y-15326960D01*
X12455777Y-15326960D02*
X12446253Y-15336484D01*
X12446253Y-15336484D02*
X12436729Y-15326960D01*
X12436729Y-15326960D02*
X12446253Y-15317436D01*
X12446253Y-15317436D02*
X12446253Y-15336484D01*
X12636729Y-15136484D02*
X12541491Y-15136484D01*
X12541491Y-15136484D02*
X12531967Y-15231722D01*
X12531967Y-15231722D02*
X12541491Y-15222198D01*
X12541491Y-15222198D02*
X12560539Y-15212674D01*
X12560539Y-15212674D02*
X12608158Y-15212674D01*
X12608158Y-15212674D02*
X12627205Y-15222198D01*
X12627205Y-15222198D02*
X12636729Y-15231722D01*
X12636729Y-15231722D02*
X12646253Y-15250769D01*
X12646253Y-15250769D02*
X12646253Y-15298388D01*
X12646253Y-15298388D02*
X12636729Y-15317436D01*
X12636729Y-15317436D02*
X12627205Y-15326960D01*
X12627205Y-15326960D02*
X12608158Y-15336484D01*
X12608158Y-15336484D02*
X12560539Y-15336484D01*
X12560539Y-15336484D02*
X12541491Y-15326960D01*
X12541491Y-15326960D02*
X12531967Y-15317436D01*
X12770062Y-15136484D02*
X12789110Y-15136484D01*
X12789110Y-15136484D02*
X12808158Y-15146008D01*
X12808158Y-15146008D02*
X12817682Y-15155531D01*
X12817682Y-15155531D02*
X12827205Y-15174579D01*
X12827205Y-15174579D02*
X12836729Y-15212674D01*
X12836729Y-15212674D02*
X12836729Y-15260293D01*
X12836729Y-15260293D02*
X12827205Y-15298388D01*
X12827205Y-15298388D02*
X12817682Y-15317436D01*
X12817682Y-15317436D02*
X12808158Y-15326960D01*
X12808158Y-15326960D02*
X12789110Y-15336484D01*
X12789110Y-15336484D02*
X12770062Y-15336484D01*
X12770062Y-15336484D02*
X12751015Y-15326960D01*
X12751015Y-15326960D02*
X12741491Y-15317436D01*
X12741491Y-15317436D02*
X12731967Y-15298388D01*
X12731967Y-15298388D02*
X12722443Y-15260293D01*
X12722443Y-15260293D02*
X12722443Y-15212674D01*
X12722443Y-15212674D02*
X12731967Y-15174579D01*
X12731967Y-15174579D02*
X12741491Y-15155531D01*
X12741491Y-15155531D02*
X12751015Y-15146008D01*
X12751015Y-15146008D02*
X12770062Y-15136484D01*
X12960539Y-15136484D02*
X12979586Y-15136484D01*
X12979586Y-15136484D02*
X12998634Y-15146008D01*
X12998634Y-15146008D02*
X13008158Y-15155531D01*
X13008158Y-15155531D02*
X13017682Y-15174579D01*
X13017682Y-15174579D02*
X13027205Y-15212674D01*
X13027205Y-15212674D02*
X13027205Y-15260293D01*
X13027205Y-15260293D02*
X13017682Y-15298388D01*
X13017682Y-15298388D02*
X13008158Y-15317436D01*
X13008158Y-15317436D02*
X12998634Y-15326960D01*
X12998634Y-15326960D02*
X12979586Y-15336484D01*
X12979586Y-15336484D02*
X12960539Y-15336484D01*
X12960539Y-15336484D02*
X12941491Y-15326960D01*
X12941491Y-15326960D02*
X12931967Y-15317436D01*
X12931967Y-15317436D02*
X12922443Y-15298388D01*
X12922443Y-15298388D02*
X12912920Y-15260293D01*
X12912920Y-15260293D02*
X12912920Y-15212674D01*
X12912920Y-15212674D02*
X12922443Y-15174579D01*
X12922443Y-15174579D02*
X12931967Y-15155531D01*
X12931967Y-15155531D02*
X12941491Y-15146008D01*
X12941491Y-15146008D02*
X12960539Y-15136484D01*
X13112920Y-15336484D02*
X13112920Y-15203150D01*
X13112920Y-15222198D02*
X13122443Y-15212674D01*
X13122443Y-15212674D02*
X13141491Y-15203150D01*
X13141491Y-15203150D02*
X13170063Y-15203150D01*
X13170063Y-15203150D02*
X13189110Y-15212674D01*
X13189110Y-15212674D02*
X13198634Y-15231722D01*
X13198634Y-15231722D02*
X13198634Y-15336484D01*
X13198634Y-15231722D02*
X13208158Y-15212674D01*
X13208158Y-15212674D02*
X13227205Y-15203150D01*
X13227205Y-15203150D02*
X13255777Y-15203150D01*
X13255777Y-15203150D02*
X13274824Y-15212674D01*
X13274824Y-15212674D02*
X13284348Y-15231722D01*
X13284348Y-15231722D02*
X13284348Y-15336484D01*
X13379586Y-15336484D02*
X13379586Y-15203150D01*
X13379586Y-15222198D02*
X13389110Y-15212674D01*
X13389110Y-15212674D02*
X13408158Y-15203150D01*
X13408158Y-15203150D02*
X13436729Y-15203150D01*
X13436729Y-15203150D02*
X13455777Y-15212674D01*
X13455777Y-15212674D02*
X13465301Y-15231722D01*
X13465301Y-15231722D02*
X13465301Y-15336484D01*
X13465301Y-15231722D02*
X13474824Y-15212674D01*
X13474824Y-15212674D02*
X13493872Y-15203150D01*
X13493872Y-15203150D02*
X13522443Y-15203150D01*
X13522443Y-15203150D02*
X13541491Y-15212674D01*
X13541491Y-15212674D02*
X13551015Y-15231722D01*
X13551015Y-15231722D02*
X13551015Y-15336484D01*
X13941491Y-15126960D02*
X13770063Y-15384103D01*
X14198634Y-15136484D02*
X14217682Y-15136484D01*
X14217682Y-15136484D02*
X14236729Y-15146008D01*
X14236729Y-15146008D02*
X14246253Y-15155531D01*
X14246253Y-15155531D02*
X14255777Y-15174579D01*
X14255777Y-15174579D02*
X14265301Y-15212674D01*
X14265301Y-15212674D02*
X14265301Y-15260293D01*
X14265301Y-15260293D02*
X14255777Y-15298388D01*
X14255777Y-15298388D02*
X14246253Y-15317436D01*
X14246253Y-15317436D02*
X14236729Y-15326960D01*
X14236729Y-15326960D02*
X14217682Y-15336484D01*
X14217682Y-15336484D02*
X14198634Y-15336484D01*
X14198634Y-15336484D02*
X14179586Y-15326960D01*
X14179586Y-15326960D02*
X14170063Y-15317436D01*
X14170063Y-15317436D02*
X14160539Y-15298388D01*
X14160539Y-15298388D02*
X14151015Y-15260293D01*
X14151015Y-15260293D02*
X14151015Y-15212674D01*
X14151015Y-15212674D02*
X14160539Y-15174579D01*
X14160539Y-15174579D02*
X14170063Y-15155531D01*
X14170063Y-15155531D02*
X14179586Y-15146008D01*
X14179586Y-15146008D02*
X14198634Y-15136484D01*
X14351015Y-15317436D02*
X14360539Y-15326960D01*
X14360539Y-15326960D02*
X14351015Y-15336484D01*
X14351015Y-15336484D02*
X14341491Y-15326960D01*
X14341491Y-15326960D02*
X14351015Y-15317436D01*
X14351015Y-15317436D02*
X14351015Y-15336484D01*
X14484348Y-15136484D02*
X14503396Y-15136484D01*
X14503396Y-15136484D02*
X14522444Y-15146008D01*
X14522444Y-15146008D02*
X14531967Y-15155531D01*
X14531967Y-15155531D02*
X14541491Y-15174579D01*
X14541491Y-15174579D02*
X14551015Y-15212674D01*
X14551015Y-15212674D02*
X14551015Y-15260293D01*
X14551015Y-15260293D02*
X14541491Y-15298388D01*
X14541491Y-15298388D02*
X14531967Y-15317436D01*
X14531967Y-15317436D02*
X14522444Y-15326960D01*
X14522444Y-15326960D02*
X14503396Y-15336484D01*
X14503396Y-15336484D02*
X14484348Y-15336484D01*
X14484348Y-15336484D02*
X14465301Y-15326960D01*
X14465301Y-15326960D02*
X14455777Y-15317436D01*
X14455777Y-15317436D02*
X14446253Y-15298388D01*
X14446253Y-15298388D02*
X14436729Y-15260293D01*
X14436729Y-15260293D02*
X14436729Y-15212674D01*
X14436729Y-15212674D02*
X14446253Y-15174579D01*
X14446253Y-15174579D02*
X14455777Y-15155531D01*
X14455777Y-15155531D02*
X14465301Y-15146008D01*
X14465301Y-15146008D02*
X14484348Y-15136484D01*
X14731967Y-15136484D02*
X14636729Y-15136484D01*
X14636729Y-15136484D02*
X14627206Y-15231722D01*
X14627206Y-15231722D02*
X14636729Y-15222198D01*
X14636729Y-15222198D02*
X14655777Y-15212674D01*
X14655777Y-15212674D02*
X14703396Y-15212674D01*
X14703396Y-15212674D02*
X14722444Y-15222198D01*
X14722444Y-15222198D02*
X14731967Y-15231722D01*
X14731967Y-15231722D02*
X14741491Y-15250769D01*
X14741491Y-15250769D02*
X14741491Y-15298388D01*
X14741491Y-15298388D02*
X14731967Y-15317436D01*
X14731967Y-15317436D02*
X14722444Y-15326960D01*
X14722444Y-15326960D02*
X14703396Y-15336484D01*
X14703396Y-15336484D02*
X14655777Y-15336484D01*
X14655777Y-15336484D02*
X14636729Y-15326960D01*
X14636729Y-15326960D02*
X14627206Y-15317436D01*
X14836729Y-15336484D02*
X14874825Y-15336484D01*
X14874825Y-15336484D02*
X14893872Y-15326960D01*
X14893872Y-15326960D02*
X14903396Y-15317436D01*
X14903396Y-15317436D02*
X14922444Y-15288865D01*
X14922444Y-15288865D02*
X14931967Y-15250769D01*
X14931967Y-15250769D02*
X14931967Y-15174579D01*
X14931967Y-15174579D02*
X14922444Y-15155531D01*
X14922444Y-15155531D02*
X14912920Y-15146008D01*
X14912920Y-15146008D02*
X14893872Y-15136484D01*
X14893872Y-15136484D02*
X14855777Y-15136484D01*
X14855777Y-15136484D02*
X14836729Y-15146008D01*
X14836729Y-15146008D02*
X14827206Y-15155531D01*
X14827206Y-15155531D02*
X14817682Y-15174579D01*
X14817682Y-15174579D02*
X14817682Y-15222198D01*
X14817682Y-15222198D02*
X14827206Y-15241246D01*
X14827206Y-15241246D02*
X14836729Y-15250769D01*
X14836729Y-15250769D02*
X14855777Y-15260293D01*
X14855777Y-15260293D02*
X14893872Y-15260293D01*
X14893872Y-15260293D02*
X14912920Y-15250769D01*
X14912920Y-15250769D02*
X14922444Y-15241246D01*
X14922444Y-15241246D02*
X14931967Y-15222198D01*
X15122444Y-15336484D02*
X15008158Y-15336484D01*
X15065301Y-15336484D02*
X15065301Y-15136484D01*
X15065301Y-15136484D02*
X15046253Y-15165055D01*
X15046253Y-15165055D02*
X15027206Y-15184103D01*
X15027206Y-15184103D02*
X15008158Y-15193627D01*
X15198634Y-15136484D02*
X15198634Y-15174579D01*
X15274825Y-15136484D02*
X15274825Y-15174579D01*
X15570063Y-15412674D02*
X15560539Y-15403150D01*
X15560539Y-15403150D02*
X15541491Y-15374579D01*
X15541491Y-15374579D02*
X15531968Y-15355531D01*
X15531968Y-15355531D02*
X15522444Y-15326960D01*
X15522444Y-15326960D02*
X15512920Y-15279341D01*
X15512920Y-15279341D02*
X15512920Y-15241246D01*
X15512920Y-15241246D02*
X15522444Y-15193627D01*
X15522444Y-15193627D02*
X15531968Y-15165055D01*
X15531968Y-15165055D02*
X15541491Y-15146008D01*
X15541491Y-15146008D02*
X15560539Y-15117436D01*
X15560539Y-15117436D02*
X15570063Y-15107912D01*
X15636729Y-15155531D02*
X15646253Y-15146008D01*
X15646253Y-15146008D02*
X15665301Y-15136484D01*
X15665301Y-15136484D02*
X15712920Y-15136484D01*
X15712920Y-15136484D02*
X15731968Y-15146008D01*
X15731968Y-15146008D02*
X15741491Y-15155531D01*
X15741491Y-15155531D02*
X15751015Y-15174579D01*
X15751015Y-15174579D02*
X15751015Y-15193627D01*
X15751015Y-15193627D02*
X15741491Y-15222198D01*
X15741491Y-15222198D02*
X15627206Y-15336484D01*
X15627206Y-15336484D02*
X15751015Y-15336484D01*
X15989110Y-15336484D02*
X15989110Y-15136484D01*
X16074825Y-15336484D02*
X16074825Y-15231722D01*
X16074825Y-15231722D02*
X16065301Y-15212674D01*
X16065301Y-15212674D02*
X16046253Y-15203150D01*
X16046253Y-15203150D02*
X16017682Y-15203150D01*
X16017682Y-15203150D02*
X15998634Y-15212674D01*
X15998634Y-15212674D02*
X15989110Y-15222198D01*
X16198634Y-15336484D02*
X16179587Y-15326960D01*
X16179587Y-15326960D02*
X16170063Y-15317436D01*
X16170063Y-15317436D02*
X16160539Y-15298388D01*
X16160539Y-15298388D02*
X16160539Y-15241246D01*
X16160539Y-15241246D02*
X16170063Y-15222198D01*
X16170063Y-15222198D02*
X16179587Y-15212674D01*
X16179587Y-15212674D02*
X16198634Y-15203150D01*
X16198634Y-15203150D02*
X16227206Y-15203150D01*
X16227206Y-15203150D02*
X16246253Y-15212674D01*
X16246253Y-15212674D02*
X16255777Y-15222198D01*
X16255777Y-15222198D02*
X16265301Y-15241246D01*
X16265301Y-15241246D02*
X16265301Y-15298388D01*
X16265301Y-15298388D02*
X16255777Y-15317436D01*
X16255777Y-15317436D02*
X16246253Y-15326960D01*
X16246253Y-15326960D02*
X16227206Y-15336484D01*
X16227206Y-15336484D02*
X16198634Y-15336484D01*
X16379587Y-15336484D02*
X16360539Y-15326960D01*
X16360539Y-15326960D02*
X16351015Y-15307912D01*
X16351015Y-15307912D02*
X16351015Y-15136484D01*
X16531968Y-15326960D02*
X16512920Y-15336484D01*
X16512920Y-15336484D02*
X16474825Y-15336484D01*
X16474825Y-15336484D02*
X16455777Y-15326960D01*
X16455777Y-15326960D02*
X16446253Y-15307912D01*
X16446253Y-15307912D02*
X16446253Y-15231722D01*
X16446253Y-15231722D02*
X16455777Y-15212674D01*
X16455777Y-15212674D02*
X16474825Y-15203150D01*
X16474825Y-15203150D02*
X16512920Y-15203150D01*
X16512920Y-15203150D02*
X16531968Y-15212674D01*
X16531968Y-15212674D02*
X16541491Y-15231722D01*
X16541491Y-15231722D02*
X16541491Y-15250769D01*
X16541491Y-15250769D02*
X16446253Y-15269817D01*
X16617682Y-15326960D02*
X16636730Y-15336484D01*
X16636730Y-15336484D02*
X16674825Y-15336484D01*
X16674825Y-15336484D02*
X16693872Y-15326960D01*
X16693872Y-15326960D02*
X16703396Y-15307912D01*
X16703396Y-15307912D02*
X16703396Y-15298388D01*
X16703396Y-15298388D02*
X16693872Y-15279341D01*
X16693872Y-15279341D02*
X16674825Y-15269817D01*
X16674825Y-15269817D02*
X16646253Y-15269817D01*
X16646253Y-15269817D02*
X16627206Y-15260293D01*
X16627206Y-15260293D02*
X16617682Y-15241246D01*
X16617682Y-15241246D02*
X16617682Y-15231722D01*
X16617682Y-15231722D02*
X16627206Y-15212674D01*
X16627206Y-15212674D02*
X16646253Y-15203150D01*
X16646253Y-15203150D02*
X16674825Y-15203150D01*
X16674825Y-15203150D02*
X16693872Y-15212674D01*
X16770063Y-15412674D02*
X16779587Y-15403150D01*
X16779587Y-15403150D02*
X16798634Y-15374579D01*
X16798634Y-15374579D02*
X16808158Y-15355531D01*
X16808158Y-15355531D02*
X16817682Y-15326960D01*
X16817682Y-15326960D02*
X16827206Y-15279341D01*
X16827206Y-15279341D02*
X16827206Y-15241246D01*
X16827206Y-15241246D02*
X16817682Y-15193627D01*
X16817682Y-15193627D02*
X16808158Y-15165055D01*
X16808158Y-15165055D02*
X16798634Y-15146008D01*
X16798634Y-15146008D02*
X16779587Y-15117436D01*
X16779587Y-15117436D02*
X16770063Y-15107912D01*
X17131968Y-15412674D02*
X17122444Y-15403150D01*
X17122444Y-15403150D02*
X17103396Y-15374579D01*
X17103396Y-15374579D02*
X17093873Y-15355531D01*
X17093873Y-15355531D02*
X17084349Y-15326960D01*
X17084349Y-15326960D02*
X17074825Y-15279341D01*
X17074825Y-15279341D02*
X17074825Y-15241246D01*
X17074825Y-15241246D02*
X17084349Y-15193627D01*
X17084349Y-15193627D02*
X17093873Y-15165055D01*
X17093873Y-15165055D02*
X17103396Y-15146008D01*
X17103396Y-15146008D02*
X17122444Y-15117436D01*
X17122444Y-15117436D02*
X17131968Y-15107912D01*
X17208158Y-15203150D02*
X17208158Y-15336484D01*
X17208158Y-15222198D02*
X17217682Y-15212674D01*
X17217682Y-15212674D02*
X17236730Y-15203150D01*
X17236730Y-15203150D02*
X17265301Y-15203150D01*
X17265301Y-15203150D02*
X17284349Y-15212674D01*
X17284349Y-15212674D02*
X17293873Y-15231722D01*
X17293873Y-15231722D02*
X17293873Y-15336484D01*
X17417682Y-15336484D02*
X17398634Y-15326960D01*
X17398634Y-15326960D02*
X17389111Y-15317436D01*
X17389111Y-15317436D02*
X17379587Y-15298388D01*
X17379587Y-15298388D02*
X17379587Y-15241246D01*
X17379587Y-15241246D02*
X17389111Y-15222198D01*
X17389111Y-15222198D02*
X17398634Y-15212674D01*
X17398634Y-15212674D02*
X17417682Y-15203150D01*
X17417682Y-15203150D02*
X17446254Y-15203150D01*
X17446254Y-15203150D02*
X17465301Y-15212674D01*
X17465301Y-15212674D02*
X17474825Y-15222198D01*
X17474825Y-15222198D02*
X17484349Y-15241246D01*
X17484349Y-15241246D02*
X17484349Y-15298388D01*
X17484349Y-15298388D02*
X17474825Y-15317436D01*
X17474825Y-15317436D02*
X17465301Y-15326960D01*
X17465301Y-15326960D02*
X17446254Y-15336484D01*
X17446254Y-15336484D02*
X17417682Y-15336484D01*
X17541492Y-15203150D02*
X17617682Y-15203150D01*
X17570063Y-15136484D02*
X17570063Y-15307912D01*
X17570063Y-15307912D02*
X17579587Y-15326960D01*
X17579587Y-15326960D02*
X17598634Y-15336484D01*
X17598634Y-15336484D02*
X17617682Y-15336484D01*
X17836730Y-15203150D02*
X17836730Y-15403150D01*
X17836730Y-15212674D02*
X17855777Y-15203150D01*
X17855777Y-15203150D02*
X17893873Y-15203150D01*
X17893873Y-15203150D02*
X17912920Y-15212674D01*
X17912920Y-15212674D02*
X17922444Y-15222198D01*
X17922444Y-15222198D02*
X17931968Y-15241246D01*
X17931968Y-15241246D02*
X17931968Y-15298388D01*
X17931968Y-15298388D02*
X17922444Y-15317436D01*
X17922444Y-15317436D02*
X17912920Y-15326960D01*
X17912920Y-15326960D02*
X17893873Y-15336484D01*
X17893873Y-15336484D02*
X17855777Y-15336484D01*
X17855777Y-15336484D02*
X17836730Y-15326960D01*
X18046254Y-15336484D02*
X18027206Y-15326960D01*
X18027206Y-15326960D02*
X18017682Y-15307912D01*
X18017682Y-15307912D02*
X18017682Y-15136484D01*
X18208158Y-15336484D02*
X18208158Y-15231722D01*
X18208158Y-15231722D02*
X18198635Y-15212674D01*
X18198635Y-15212674D02*
X18179587Y-15203150D01*
X18179587Y-15203150D02*
X18141492Y-15203150D01*
X18141492Y-15203150D02*
X18122444Y-15212674D01*
X18208158Y-15326960D02*
X18189111Y-15336484D01*
X18189111Y-15336484D02*
X18141492Y-15336484D01*
X18141492Y-15336484D02*
X18122444Y-15326960D01*
X18122444Y-15326960D02*
X18112920Y-15307912D01*
X18112920Y-15307912D02*
X18112920Y-15288865D01*
X18112920Y-15288865D02*
X18122444Y-15269817D01*
X18122444Y-15269817D02*
X18141492Y-15260293D01*
X18141492Y-15260293D02*
X18189111Y-15260293D01*
X18189111Y-15260293D02*
X18208158Y-15250769D01*
X18274825Y-15203150D02*
X18351015Y-15203150D01*
X18303396Y-15136484D02*
X18303396Y-15307912D01*
X18303396Y-15307912D02*
X18312920Y-15326960D01*
X18312920Y-15326960D02*
X18331968Y-15336484D01*
X18331968Y-15336484D02*
X18351015Y-15336484D01*
X18493873Y-15326960D02*
X18474825Y-15336484D01*
X18474825Y-15336484D02*
X18436730Y-15336484D01*
X18436730Y-15336484D02*
X18417682Y-15326960D01*
X18417682Y-15326960D02*
X18408158Y-15307912D01*
X18408158Y-15307912D02*
X18408158Y-15231722D01*
X18408158Y-15231722D02*
X18417682Y-15212674D01*
X18417682Y-15212674D02*
X18436730Y-15203150D01*
X18436730Y-15203150D02*
X18474825Y-15203150D01*
X18474825Y-15203150D02*
X18493873Y-15212674D01*
X18493873Y-15212674D02*
X18503396Y-15231722D01*
X18503396Y-15231722D02*
X18503396Y-15250769D01*
X18503396Y-15250769D02*
X18408158Y-15269817D01*
X18674825Y-15336484D02*
X18674825Y-15136484D01*
X18674825Y-15326960D02*
X18655777Y-15336484D01*
X18655777Y-15336484D02*
X18617682Y-15336484D01*
X18617682Y-15336484D02*
X18598635Y-15326960D01*
X18598635Y-15326960D02*
X18589111Y-15317436D01*
X18589111Y-15317436D02*
X18579587Y-15298388D01*
X18579587Y-15298388D02*
X18579587Y-15241246D01*
X18579587Y-15241246D02*
X18589111Y-15222198D01*
X18589111Y-15222198D02*
X18598635Y-15212674D01*
X18598635Y-15212674D02*
X18617682Y-15203150D01*
X18617682Y-15203150D02*
X18655777Y-15203150D01*
X18655777Y-15203150D02*
X18674825Y-15212674D01*
X18751016Y-15412674D02*
X18760539Y-15403150D01*
X18760539Y-15403150D02*
X18779587Y-15374579D01*
X18779587Y-15374579D02*
X18789111Y-15355531D01*
X18789111Y-15355531D02*
X18798635Y-15326960D01*
X18798635Y-15326960D02*
X18808158Y-15279341D01*
X18808158Y-15279341D02*
X18808158Y-15241246D01*
X18808158Y-15241246D02*
X18798635Y-15193627D01*
X18798635Y-15193627D02*
X18789111Y-15165055D01*
X18789111Y-15165055D02*
X18779587Y-15146008D01*
X18779587Y-15146008D02*
X18760539Y-15117436D01*
X18760539Y-15117436D02*
X18751016Y-15107912D01*
D13*
X11995000Y-15515000D02*
G75*
G03*
X11995000Y-15515000I-90000J0D01*
G01*
D11*
X12360539Y-15606484D02*
X12246253Y-15606484D01*
X12303396Y-15606484D02*
X12303396Y-15406484D01*
X12303396Y-15406484D02*
X12284348Y-15435055D01*
X12284348Y-15435055D02*
X12265301Y-15454103D01*
X12265301Y-15454103D02*
X12246253Y-15463627D01*
X12446253Y-15587436D02*
X12455777Y-15596960D01*
X12455777Y-15596960D02*
X12446253Y-15606484D01*
X12446253Y-15606484D02*
X12436729Y-15596960D01*
X12436729Y-15596960D02*
X12446253Y-15587436D01*
X12446253Y-15587436D02*
X12446253Y-15606484D01*
X12570062Y-15492198D02*
X12551015Y-15482674D01*
X12551015Y-15482674D02*
X12541491Y-15473150D01*
X12541491Y-15473150D02*
X12531967Y-15454103D01*
X12531967Y-15454103D02*
X12531967Y-15444579D01*
X12531967Y-15444579D02*
X12541491Y-15425531D01*
X12541491Y-15425531D02*
X12551015Y-15416008D01*
X12551015Y-15416008D02*
X12570062Y-15406484D01*
X12570062Y-15406484D02*
X12608158Y-15406484D01*
X12608158Y-15406484D02*
X12627205Y-15416008D01*
X12627205Y-15416008D02*
X12636729Y-15425531D01*
X12636729Y-15425531D02*
X12646253Y-15444579D01*
X12646253Y-15444579D02*
X12646253Y-15454103D01*
X12646253Y-15454103D02*
X12636729Y-15473150D01*
X12636729Y-15473150D02*
X12627205Y-15482674D01*
X12627205Y-15482674D02*
X12608158Y-15492198D01*
X12608158Y-15492198D02*
X12570062Y-15492198D01*
X12570062Y-15492198D02*
X12551015Y-15501722D01*
X12551015Y-15501722D02*
X12541491Y-15511246D01*
X12541491Y-15511246D02*
X12531967Y-15530293D01*
X12531967Y-15530293D02*
X12531967Y-15568388D01*
X12531967Y-15568388D02*
X12541491Y-15587436D01*
X12541491Y-15587436D02*
X12551015Y-15596960D01*
X12551015Y-15596960D02*
X12570062Y-15606484D01*
X12570062Y-15606484D02*
X12608158Y-15606484D01*
X12608158Y-15606484D02*
X12627205Y-15596960D01*
X12627205Y-15596960D02*
X12636729Y-15587436D01*
X12636729Y-15587436D02*
X12646253Y-15568388D01*
X12646253Y-15568388D02*
X12646253Y-15530293D01*
X12646253Y-15530293D02*
X12636729Y-15511246D01*
X12636729Y-15511246D02*
X12627205Y-15501722D01*
X12627205Y-15501722D02*
X12608158Y-15492198D01*
X12770062Y-15406484D02*
X12789110Y-15406484D01*
X12789110Y-15406484D02*
X12808158Y-15416008D01*
X12808158Y-15416008D02*
X12817682Y-15425531D01*
X12817682Y-15425531D02*
X12827205Y-15444579D01*
X12827205Y-15444579D02*
X12836729Y-15482674D01*
X12836729Y-15482674D02*
X12836729Y-15530293D01*
X12836729Y-15530293D02*
X12827205Y-15568388D01*
X12827205Y-15568388D02*
X12817682Y-15587436D01*
X12817682Y-15587436D02*
X12808158Y-15596960D01*
X12808158Y-15596960D02*
X12789110Y-15606484D01*
X12789110Y-15606484D02*
X12770062Y-15606484D01*
X12770062Y-15606484D02*
X12751015Y-15596960D01*
X12751015Y-15596960D02*
X12741491Y-15587436D01*
X12741491Y-15587436D02*
X12731967Y-15568388D01*
X12731967Y-15568388D02*
X12722443Y-15530293D01*
X12722443Y-15530293D02*
X12722443Y-15482674D01*
X12722443Y-15482674D02*
X12731967Y-15444579D01*
X12731967Y-15444579D02*
X12741491Y-15425531D01*
X12741491Y-15425531D02*
X12751015Y-15416008D01*
X12751015Y-15416008D02*
X12770062Y-15406484D01*
X12960539Y-15406484D02*
X12979586Y-15406484D01*
X12979586Y-15406484D02*
X12998634Y-15416008D01*
X12998634Y-15416008D02*
X13008158Y-15425531D01*
X13008158Y-15425531D02*
X13017682Y-15444579D01*
X13017682Y-15444579D02*
X13027205Y-15482674D01*
X13027205Y-15482674D02*
X13027205Y-15530293D01*
X13027205Y-15530293D02*
X13017682Y-15568388D01*
X13017682Y-15568388D02*
X13008158Y-15587436D01*
X13008158Y-15587436D02*
X12998634Y-15596960D01*
X12998634Y-15596960D02*
X12979586Y-15606484D01*
X12979586Y-15606484D02*
X12960539Y-15606484D01*
X12960539Y-15606484D02*
X12941491Y-15596960D01*
X12941491Y-15596960D02*
X12931967Y-15587436D01*
X12931967Y-15587436D02*
X12922443Y-15568388D01*
X12922443Y-15568388D02*
X12912920Y-15530293D01*
X12912920Y-15530293D02*
X12912920Y-15482674D01*
X12912920Y-15482674D02*
X12922443Y-15444579D01*
X12922443Y-15444579D02*
X12931967Y-15425531D01*
X12931967Y-15425531D02*
X12941491Y-15416008D01*
X12941491Y-15416008D02*
X12960539Y-15406484D01*
X13112920Y-15606484D02*
X13112920Y-15473150D01*
X13112920Y-15492198D02*
X13122443Y-15482674D01*
X13122443Y-15482674D02*
X13141491Y-15473150D01*
X13141491Y-15473150D02*
X13170063Y-15473150D01*
X13170063Y-15473150D02*
X13189110Y-15482674D01*
X13189110Y-15482674D02*
X13198634Y-15501722D01*
X13198634Y-15501722D02*
X13198634Y-15606484D01*
X13198634Y-15501722D02*
X13208158Y-15482674D01*
X13208158Y-15482674D02*
X13227205Y-15473150D01*
X13227205Y-15473150D02*
X13255777Y-15473150D01*
X13255777Y-15473150D02*
X13274824Y-15482674D01*
X13274824Y-15482674D02*
X13284348Y-15501722D01*
X13284348Y-15501722D02*
X13284348Y-15606484D01*
X13379586Y-15606484D02*
X13379586Y-15473150D01*
X13379586Y-15492198D02*
X13389110Y-15482674D01*
X13389110Y-15482674D02*
X13408158Y-15473150D01*
X13408158Y-15473150D02*
X13436729Y-15473150D01*
X13436729Y-15473150D02*
X13455777Y-15482674D01*
X13455777Y-15482674D02*
X13465301Y-15501722D01*
X13465301Y-15501722D02*
X13465301Y-15606484D01*
X13465301Y-15501722D02*
X13474824Y-15482674D01*
X13474824Y-15482674D02*
X13493872Y-15473150D01*
X13493872Y-15473150D02*
X13522443Y-15473150D01*
X13522443Y-15473150D02*
X13541491Y-15482674D01*
X13541491Y-15482674D02*
X13551015Y-15501722D01*
X13551015Y-15501722D02*
X13551015Y-15606484D01*
X13941491Y-15396960D02*
X13770063Y-15654103D01*
X14198634Y-15406484D02*
X14217682Y-15406484D01*
X14217682Y-15406484D02*
X14236729Y-15416008D01*
X14236729Y-15416008D02*
X14246253Y-15425531D01*
X14246253Y-15425531D02*
X14255777Y-15444579D01*
X14255777Y-15444579D02*
X14265301Y-15482674D01*
X14265301Y-15482674D02*
X14265301Y-15530293D01*
X14265301Y-15530293D02*
X14255777Y-15568388D01*
X14255777Y-15568388D02*
X14246253Y-15587436D01*
X14246253Y-15587436D02*
X14236729Y-15596960D01*
X14236729Y-15596960D02*
X14217682Y-15606484D01*
X14217682Y-15606484D02*
X14198634Y-15606484D01*
X14198634Y-15606484D02*
X14179586Y-15596960D01*
X14179586Y-15596960D02*
X14170063Y-15587436D01*
X14170063Y-15587436D02*
X14160539Y-15568388D01*
X14160539Y-15568388D02*
X14151015Y-15530293D01*
X14151015Y-15530293D02*
X14151015Y-15482674D01*
X14151015Y-15482674D02*
X14160539Y-15444579D01*
X14160539Y-15444579D02*
X14170063Y-15425531D01*
X14170063Y-15425531D02*
X14179586Y-15416008D01*
X14179586Y-15416008D02*
X14198634Y-15406484D01*
X14351015Y-15587436D02*
X14360539Y-15596960D01*
X14360539Y-15596960D02*
X14351015Y-15606484D01*
X14351015Y-15606484D02*
X14341491Y-15596960D01*
X14341491Y-15596960D02*
X14351015Y-15587436D01*
X14351015Y-15587436D02*
X14351015Y-15606484D01*
X14484348Y-15406484D02*
X14503396Y-15406484D01*
X14503396Y-15406484D02*
X14522444Y-15416008D01*
X14522444Y-15416008D02*
X14531967Y-15425531D01*
X14531967Y-15425531D02*
X14541491Y-15444579D01*
X14541491Y-15444579D02*
X14551015Y-15482674D01*
X14551015Y-15482674D02*
X14551015Y-15530293D01*
X14551015Y-15530293D02*
X14541491Y-15568388D01*
X14541491Y-15568388D02*
X14531967Y-15587436D01*
X14531967Y-15587436D02*
X14522444Y-15596960D01*
X14522444Y-15596960D02*
X14503396Y-15606484D01*
X14503396Y-15606484D02*
X14484348Y-15606484D01*
X14484348Y-15606484D02*
X14465301Y-15596960D01*
X14465301Y-15596960D02*
X14455777Y-15587436D01*
X14455777Y-15587436D02*
X14446253Y-15568388D01*
X14446253Y-15568388D02*
X14436729Y-15530293D01*
X14436729Y-15530293D02*
X14436729Y-15482674D01*
X14436729Y-15482674D02*
X14446253Y-15444579D01*
X14446253Y-15444579D02*
X14455777Y-15425531D01*
X14455777Y-15425531D02*
X14465301Y-15416008D01*
X14465301Y-15416008D02*
X14484348Y-15406484D01*
X14617682Y-15406484D02*
X14751015Y-15406484D01*
X14751015Y-15406484D02*
X14665301Y-15606484D01*
X14865301Y-15406484D02*
X14884348Y-15406484D01*
X14884348Y-15406484D02*
X14903396Y-15416008D01*
X14903396Y-15416008D02*
X14912920Y-15425531D01*
X14912920Y-15425531D02*
X14922444Y-15444579D01*
X14922444Y-15444579D02*
X14931967Y-15482674D01*
X14931967Y-15482674D02*
X14931967Y-15530293D01*
X14931967Y-15530293D02*
X14922444Y-15568388D01*
X14922444Y-15568388D02*
X14912920Y-15587436D01*
X14912920Y-15587436D02*
X14903396Y-15596960D01*
X14903396Y-15596960D02*
X14884348Y-15606484D01*
X14884348Y-15606484D02*
X14865301Y-15606484D01*
X14865301Y-15606484D02*
X14846253Y-15596960D01*
X14846253Y-15596960D02*
X14836729Y-15587436D01*
X14836729Y-15587436D02*
X14827206Y-15568388D01*
X14827206Y-15568388D02*
X14817682Y-15530293D01*
X14817682Y-15530293D02*
X14817682Y-15482674D01*
X14817682Y-15482674D02*
X14827206Y-15444579D01*
X14827206Y-15444579D02*
X14836729Y-15425531D01*
X14836729Y-15425531D02*
X14846253Y-15416008D01*
X14846253Y-15416008D02*
X14865301Y-15406484D01*
X15027206Y-15606484D02*
X15065301Y-15606484D01*
X15065301Y-15606484D02*
X15084348Y-15596960D01*
X15084348Y-15596960D02*
X15093872Y-15587436D01*
X15093872Y-15587436D02*
X15112920Y-15558865D01*
X15112920Y-15558865D02*
X15122444Y-15520769D01*
X15122444Y-15520769D02*
X15122444Y-15444579D01*
X15122444Y-15444579D02*
X15112920Y-15425531D01*
X15112920Y-15425531D02*
X15103396Y-15416008D01*
X15103396Y-15416008D02*
X15084348Y-15406484D01*
X15084348Y-15406484D02*
X15046253Y-15406484D01*
X15046253Y-15406484D02*
X15027206Y-15416008D01*
X15027206Y-15416008D02*
X15017682Y-15425531D01*
X15017682Y-15425531D02*
X15008158Y-15444579D01*
X15008158Y-15444579D02*
X15008158Y-15492198D01*
X15008158Y-15492198D02*
X15017682Y-15511246D01*
X15017682Y-15511246D02*
X15027206Y-15520769D01*
X15027206Y-15520769D02*
X15046253Y-15530293D01*
X15046253Y-15530293D02*
X15084348Y-15530293D01*
X15084348Y-15530293D02*
X15103396Y-15520769D01*
X15103396Y-15520769D02*
X15112920Y-15511246D01*
X15112920Y-15511246D02*
X15122444Y-15492198D01*
X15198634Y-15406484D02*
X15198634Y-15444579D01*
X15274825Y-15406484D02*
X15274825Y-15444579D01*
X15570063Y-15682674D02*
X15560539Y-15673150D01*
X15560539Y-15673150D02*
X15541491Y-15644579D01*
X15541491Y-15644579D02*
X15531968Y-15625531D01*
X15531968Y-15625531D02*
X15522444Y-15596960D01*
X15522444Y-15596960D02*
X15512920Y-15549341D01*
X15512920Y-15549341D02*
X15512920Y-15511246D01*
X15512920Y-15511246D02*
X15522444Y-15463627D01*
X15522444Y-15463627D02*
X15531968Y-15435055D01*
X15531968Y-15435055D02*
X15541491Y-15416008D01*
X15541491Y-15416008D02*
X15560539Y-15387436D01*
X15560539Y-15387436D02*
X15570063Y-15377912D01*
X15636729Y-15425531D02*
X15646253Y-15416008D01*
X15646253Y-15416008D02*
X15665301Y-15406484D01*
X15665301Y-15406484D02*
X15712920Y-15406484D01*
X15712920Y-15406484D02*
X15731968Y-15416008D01*
X15731968Y-15416008D02*
X15741491Y-15425531D01*
X15741491Y-15425531D02*
X15751015Y-15444579D01*
X15751015Y-15444579D02*
X15751015Y-15463627D01*
X15751015Y-15463627D02*
X15741491Y-15492198D01*
X15741491Y-15492198D02*
X15627206Y-15606484D01*
X15627206Y-15606484D02*
X15751015Y-15606484D01*
X15989110Y-15606484D02*
X15989110Y-15406484D01*
X16074825Y-15606484D02*
X16074825Y-15501722D01*
X16074825Y-15501722D02*
X16065301Y-15482674D01*
X16065301Y-15482674D02*
X16046253Y-15473150D01*
X16046253Y-15473150D02*
X16017682Y-15473150D01*
X16017682Y-15473150D02*
X15998634Y-15482674D01*
X15998634Y-15482674D02*
X15989110Y-15492198D01*
X16198634Y-15606484D02*
X16179587Y-15596960D01*
X16179587Y-15596960D02*
X16170063Y-15587436D01*
X16170063Y-15587436D02*
X16160539Y-15568388D01*
X16160539Y-15568388D02*
X16160539Y-15511246D01*
X16160539Y-15511246D02*
X16170063Y-15492198D01*
X16170063Y-15492198D02*
X16179587Y-15482674D01*
X16179587Y-15482674D02*
X16198634Y-15473150D01*
X16198634Y-15473150D02*
X16227206Y-15473150D01*
X16227206Y-15473150D02*
X16246253Y-15482674D01*
X16246253Y-15482674D02*
X16255777Y-15492198D01*
X16255777Y-15492198D02*
X16265301Y-15511246D01*
X16265301Y-15511246D02*
X16265301Y-15568388D01*
X16265301Y-15568388D02*
X16255777Y-15587436D01*
X16255777Y-15587436D02*
X16246253Y-15596960D01*
X16246253Y-15596960D02*
X16227206Y-15606484D01*
X16227206Y-15606484D02*
X16198634Y-15606484D01*
X16379587Y-15606484D02*
X16360539Y-15596960D01*
X16360539Y-15596960D02*
X16351015Y-15577912D01*
X16351015Y-15577912D02*
X16351015Y-15406484D01*
X16531968Y-15596960D02*
X16512920Y-15606484D01*
X16512920Y-15606484D02*
X16474825Y-15606484D01*
X16474825Y-15606484D02*
X16455777Y-15596960D01*
X16455777Y-15596960D02*
X16446253Y-15577912D01*
X16446253Y-15577912D02*
X16446253Y-15501722D01*
X16446253Y-15501722D02*
X16455777Y-15482674D01*
X16455777Y-15482674D02*
X16474825Y-15473150D01*
X16474825Y-15473150D02*
X16512920Y-15473150D01*
X16512920Y-15473150D02*
X16531968Y-15482674D01*
X16531968Y-15482674D02*
X16541491Y-15501722D01*
X16541491Y-15501722D02*
X16541491Y-15520769D01*
X16541491Y-15520769D02*
X16446253Y-15539817D01*
X16617682Y-15596960D02*
X16636730Y-15606484D01*
X16636730Y-15606484D02*
X16674825Y-15606484D01*
X16674825Y-15606484D02*
X16693872Y-15596960D01*
X16693872Y-15596960D02*
X16703396Y-15577912D01*
X16703396Y-15577912D02*
X16703396Y-15568388D01*
X16703396Y-15568388D02*
X16693872Y-15549341D01*
X16693872Y-15549341D02*
X16674825Y-15539817D01*
X16674825Y-15539817D02*
X16646253Y-15539817D01*
X16646253Y-15539817D02*
X16627206Y-15530293D01*
X16627206Y-15530293D02*
X16617682Y-15511246D01*
X16617682Y-15511246D02*
X16617682Y-15501722D01*
X16617682Y-15501722D02*
X16627206Y-15482674D01*
X16627206Y-15482674D02*
X16646253Y-15473150D01*
X16646253Y-15473150D02*
X16674825Y-15473150D01*
X16674825Y-15473150D02*
X16693872Y-15482674D01*
X16770063Y-15682674D02*
X16779587Y-15673150D01*
X16779587Y-15673150D02*
X16798634Y-15644579D01*
X16798634Y-15644579D02*
X16808158Y-15625531D01*
X16808158Y-15625531D02*
X16817682Y-15596960D01*
X16817682Y-15596960D02*
X16827206Y-15549341D01*
X16827206Y-15549341D02*
X16827206Y-15511246D01*
X16827206Y-15511246D02*
X16817682Y-15463627D01*
X16817682Y-15463627D02*
X16808158Y-15435055D01*
X16808158Y-15435055D02*
X16798634Y-15416008D01*
X16798634Y-15416008D02*
X16779587Y-15387436D01*
X16779587Y-15387436D02*
X16770063Y-15377912D01*
X17131968Y-15682674D02*
X17122444Y-15673150D01*
X17122444Y-15673150D02*
X17103396Y-15644579D01*
X17103396Y-15644579D02*
X17093873Y-15625531D01*
X17093873Y-15625531D02*
X17084349Y-15596960D01*
X17084349Y-15596960D02*
X17074825Y-15549341D01*
X17074825Y-15549341D02*
X17074825Y-15511246D01*
X17074825Y-15511246D02*
X17084349Y-15463627D01*
X17084349Y-15463627D02*
X17093873Y-15435055D01*
X17093873Y-15435055D02*
X17103396Y-15416008D01*
X17103396Y-15416008D02*
X17122444Y-15387436D01*
X17122444Y-15387436D02*
X17131968Y-15377912D01*
X17208158Y-15473150D02*
X17208158Y-15606484D01*
X17208158Y-15492198D02*
X17217682Y-15482674D01*
X17217682Y-15482674D02*
X17236730Y-15473150D01*
X17236730Y-15473150D02*
X17265301Y-15473150D01*
X17265301Y-15473150D02*
X17284349Y-15482674D01*
X17284349Y-15482674D02*
X17293873Y-15501722D01*
X17293873Y-15501722D02*
X17293873Y-15606484D01*
X17417682Y-15606484D02*
X17398634Y-15596960D01*
X17398634Y-15596960D02*
X17389111Y-15587436D01*
X17389111Y-15587436D02*
X17379587Y-15568388D01*
X17379587Y-15568388D02*
X17379587Y-15511246D01*
X17379587Y-15511246D02*
X17389111Y-15492198D01*
X17389111Y-15492198D02*
X17398634Y-15482674D01*
X17398634Y-15482674D02*
X17417682Y-15473150D01*
X17417682Y-15473150D02*
X17446254Y-15473150D01*
X17446254Y-15473150D02*
X17465301Y-15482674D01*
X17465301Y-15482674D02*
X17474825Y-15492198D01*
X17474825Y-15492198D02*
X17484349Y-15511246D01*
X17484349Y-15511246D02*
X17484349Y-15568388D01*
X17484349Y-15568388D02*
X17474825Y-15587436D01*
X17474825Y-15587436D02*
X17465301Y-15596960D01*
X17465301Y-15596960D02*
X17446254Y-15606484D01*
X17446254Y-15606484D02*
X17417682Y-15606484D01*
X17541492Y-15473150D02*
X17617682Y-15473150D01*
X17570063Y-15406484D02*
X17570063Y-15577912D01*
X17570063Y-15577912D02*
X17579587Y-15596960D01*
X17579587Y-15596960D02*
X17598634Y-15606484D01*
X17598634Y-15606484D02*
X17617682Y-15606484D01*
X17836730Y-15473150D02*
X17836730Y-15673150D01*
X17836730Y-15482674D02*
X17855777Y-15473150D01*
X17855777Y-15473150D02*
X17893873Y-15473150D01*
X17893873Y-15473150D02*
X17912920Y-15482674D01*
X17912920Y-15482674D02*
X17922444Y-15492198D01*
X17922444Y-15492198D02*
X17931968Y-15511246D01*
X17931968Y-15511246D02*
X17931968Y-15568388D01*
X17931968Y-15568388D02*
X17922444Y-15587436D01*
X17922444Y-15587436D02*
X17912920Y-15596960D01*
X17912920Y-15596960D02*
X17893873Y-15606484D01*
X17893873Y-15606484D02*
X17855777Y-15606484D01*
X17855777Y-15606484D02*
X17836730Y-15596960D01*
X18046254Y-15606484D02*
X18027206Y-15596960D01*
X18027206Y-15596960D02*
X18017682Y-15577912D01*
X18017682Y-15577912D02*
X18017682Y-15406484D01*
X18208158Y-15606484D02*
X18208158Y-15501722D01*
X18208158Y-15501722D02*
X18198635Y-15482674D01*
X18198635Y-15482674D02*
X18179587Y-15473150D01*
X18179587Y-15473150D02*
X18141492Y-15473150D01*
X18141492Y-15473150D02*
X18122444Y-15482674D01*
X18208158Y-15596960D02*
X18189111Y-15606484D01*
X18189111Y-15606484D02*
X18141492Y-15606484D01*
X18141492Y-15606484D02*
X18122444Y-15596960D01*
X18122444Y-15596960D02*
X18112920Y-15577912D01*
X18112920Y-15577912D02*
X18112920Y-15558865D01*
X18112920Y-15558865D02*
X18122444Y-15539817D01*
X18122444Y-15539817D02*
X18141492Y-15530293D01*
X18141492Y-15530293D02*
X18189111Y-15530293D01*
X18189111Y-15530293D02*
X18208158Y-15520769D01*
X18274825Y-15473150D02*
X18351015Y-15473150D01*
X18303396Y-15406484D02*
X18303396Y-15577912D01*
X18303396Y-15577912D02*
X18312920Y-15596960D01*
X18312920Y-15596960D02*
X18331968Y-15606484D01*
X18331968Y-15606484D02*
X18351015Y-15606484D01*
X18493873Y-15596960D02*
X18474825Y-15606484D01*
X18474825Y-15606484D02*
X18436730Y-15606484D01*
X18436730Y-15606484D02*
X18417682Y-15596960D01*
X18417682Y-15596960D02*
X18408158Y-15577912D01*
X18408158Y-15577912D02*
X18408158Y-15501722D01*
X18408158Y-15501722D02*
X18417682Y-15482674D01*
X18417682Y-15482674D02*
X18436730Y-15473150D01*
X18436730Y-15473150D02*
X18474825Y-15473150D01*
X18474825Y-15473150D02*
X18493873Y-15482674D01*
X18493873Y-15482674D02*
X18503396Y-15501722D01*
X18503396Y-15501722D02*
X18503396Y-15520769D01*
X18503396Y-15520769D02*
X18408158Y-15539817D01*
X18674825Y-15606484D02*
X18674825Y-15406484D01*
X18674825Y-15596960D02*
X18655777Y-15606484D01*
X18655777Y-15606484D02*
X18617682Y-15606484D01*
X18617682Y-15606484D02*
X18598635Y-15596960D01*
X18598635Y-15596960D02*
X18589111Y-15587436D01*
X18589111Y-15587436D02*
X18579587Y-15568388D01*
X18579587Y-15568388D02*
X18579587Y-15511246D01*
X18579587Y-15511246D02*
X18589111Y-15492198D01*
X18589111Y-15492198D02*
X18598635Y-15482674D01*
X18598635Y-15482674D02*
X18617682Y-15473150D01*
X18617682Y-15473150D02*
X18655777Y-15473150D01*
X18655777Y-15473150D02*
X18674825Y-15482674D01*
X18751016Y-15682674D02*
X18760539Y-15673150D01*
X18760539Y-15673150D02*
X18779587Y-15644579D01*
X18779587Y-15644579D02*
X18789111Y-15625531D01*
X18789111Y-15625531D02*
X18798635Y-15596960D01*
X18798635Y-15596960D02*
X18808158Y-15549341D01*
X18808158Y-15549341D02*
X18808158Y-15511246D01*
X18808158Y-15511246D02*
X18798635Y-15463627D01*
X18798635Y-15463627D02*
X18789111Y-15435055D01*
X18789111Y-15435055D02*
X18779587Y-15416008D01*
X18779587Y-15416008D02*
X18760539Y-15387436D01*
X18760539Y-15387436D02*
X18751016Y-15377912D01*
M02*
