%TF.GenerationSoftware,KiCad,Pcbnew,7.0.6-1.fc38*%
%TF.CreationDate,2023-07-24T16:30:42-04:00*%
%TF.ProjectId,driver-pcb,64726976-6572-42d7-9063-622e6b696361,rev?*%
%TF.SameCoordinates,Original*%
%TF.FileFunction,Soldermask,Bot*%
%TF.FilePolarity,Negative*%
%FSLAX46Y46*%
G04 Gerber Fmt 4.6, Leading zero omitted, Abs format (unit mm)*
G04 Created by KiCad (PCBNEW 7.0.6-1.fc38) date 2023-07-24 16:30:42*
%MOMM*%
%LPD*%
G01*
G04 APERTURE LIST*
%ADD10O,1.700000X1.700000*%
%ADD11R,1.700000X1.700000*%
%ADD12O,1.800000X1.800000*%
%ADD13O,1.500000X1.500000*%
G04 APERTURE END LIST*
D10*
%TO.C,U1*%
X132080000Y-48260000D03*
X132080000Y-50800000D03*
D11*
X132080000Y-53340000D03*
D10*
X132080000Y-55880000D03*
X132080000Y-58420000D03*
X132080000Y-60960000D03*
X132080000Y-63500000D03*
D11*
X132080000Y-66040000D03*
D10*
X132080000Y-68580000D03*
X132080000Y-71120000D03*
X132080000Y-73660000D03*
X132080000Y-76200000D03*
D11*
X132080000Y-78740000D03*
D10*
X132080000Y-81280000D03*
X132080000Y-83820000D03*
X132080000Y-86360000D03*
X132080000Y-88900000D03*
D11*
X132080000Y-91440000D03*
D10*
X132080000Y-93980000D03*
X132080000Y-96520000D03*
X149860000Y-96520000D03*
X149860000Y-93980000D03*
D11*
X149860000Y-91440000D03*
D10*
X149860000Y-88900000D03*
X149860000Y-86360000D03*
X149860000Y-83820000D03*
X149860000Y-81280000D03*
D11*
X149860000Y-78740000D03*
D10*
X149860000Y-76200000D03*
X149860000Y-73660000D03*
X149860000Y-71120000D03*
X149860000Y-68580000D03*
D11*
X149860000Y-66040000D03*
D10*
X149860000Y-63500000D03*
X149860000Y-60960000D03*
X149860000Y-58420000D03*
X149860000Y-55880000D03*
D11*
X149860000Y-53340000D03*
D10*
X149860000Y-50800000D03*
X149860000Y-48260000D03*
D12*
X138245000Y-48390000D03*
X143695000Y-48390000D03*
D13*
X138545000Y-51420000D03*
X143395000Y-51420000D03*
D10*
X138430000Y-96290000D03*
D11*
X140970000Y-96290000D03*
D10*
X143510000Y-96290000D03*
%TD*%
%TO.C,J4*%
X149860000Y-101600000D03*
X147320000Y-101600000D03*
X144780000Y-101600000D03*
X142240000Y-101600000D03*
X139700000Y-101600000D03*
D11*
X137160000Y-101600000D03*
%TD*%
%TO.C,J3*%
X132080000Y-101600000D03*
%TD*%
%TO.C,J2*%
X124460000Y-69860000D03*
D10*
X124460000Y-72400000D03*
X124460000Y-74940000D03*
X124460000Y-77480000D03*
%TD*%
D11*
%TO.C,J1*%
X157875000Y-69850000D03*
D10*
X157875000Y-72390000D03*
X157875000Y-74930000D03*
X157875000Y-77470000D03*
%TD*%
M02*
