%TF.GenerationSoftware,KiCad,Pcbnew,7.0.6-1.fc38*%
%TF.CreationDate,2023-07-24T16:31:10-04:00*%
%TF.ProjectId,driver-pcb,64726976-6572-42d7-9063-622e6b696361,rev?*%
%TF.SameCoordinates,Original*%
%TF.FileFunction,Drillmap*%
%TF.FilePolarity,Positive*%
%FSLAX45Y45*%
G04 Gerber Fmt 4.5, Leading zero omitted, Abs format (unit mm)*
G04 Created by KiCad (PCBNEW 7.0.6-1.fc38) date 2023-07-24 16:31:10*
%MOMM*%
%LPD*%
G01*
G04 APERTURE LIST*
%ADD10C,0.100000*%
%ADD11C,0.200000*%
%ADD12C,0.040000*%
%ADD13C,0.102000*%
G04 APERTURE END LIST*
D10*
X16000000Y-14600000D02*
G75*
G03*
X16200000Y-14400000I0J200000D01*
G01*
X12000000Y-14400000D02*
G75*
G03*
X12200000Y-14600000I200000J0D01*
G01*
X12200000Y-4600000D02*
G75*
G03*
X12000000Y-4800000I0J-200000D01*
G01*
X16200000Y-4800000D02*
G75*
G03*
X16000000Y-4600000I-200000J0D01*
G01*
X12200000Y-4600000D02*
X16000000Y-4600000D01*
X12000000Y-14400000D02*
X12000000Y-4800000D01*
X16000000Y-14600000D02*
X12200000Y-14600000D01*
X16200000Y-4800000D02*
X16200000Y-14400000D01*
X12450000Y-14300000D02*
G75*
G03*
X12450000Y-14300000I-150000J0D01*
G01*
X16050000Y-14300000D02*
G75*
G03*
X16050000Y-14300000I-150000J0D01*
G01*
X16050000Y-10700000D02*
G75*
G03*
X16050000Y-10700000I-150000J0D01*
G01*
X12450000Y-10700000D02*
G75*
G03*
X12450000Y-10700000I-150000J0D01*
G01*
D11*
D12*
X13950000Y-8108000D02*
X13990000Y-8148000D01*
X13990000Y-8108000D02*
X13950000Y-8148000D01*
X14204000Y-8870000D02*
X14244000Y-8910000D01*
X14244000Y-8870000D02*
X14204000Y-8910000D01*
X14585000Y-7346000D02*
X14625000Y-7386000D01*
X14625000Y-7346000D02*
X14585000Y-7386000D01*
X14712000Y-7981000D02*
X14752000Y-8021000D01*
X14752000Y-7981000D02*
X14712000Y-8021000D01*
X14966000Y-9886000D02*
X15006000Y-9926000D01*
X15006000Y-9886000D02*
X14966000Y-9926000D01*
D10*
X12496000Y-6986000D02*
G75*
G03*
X12496000Y-6986000I-50000J0D01*
G01*
X12496000Y-7240000D02*
G75*
G03*
X12496000Y-7240000I-50000J0D01*
G01*
X12496000Y-7494000D02*
G75*
G03*
X12496000Y-7494000I-50000J0D01*
G01*
X12496000Y-7748000D02*
G75*
G03*
X12496000Y-7748000I-50000J0D01*
G01*
X13258000Y-10160000D02*
G75*
G03*
X13258000Y-10160000I-50000J0D01*
G01*
X13766000Y-10160000D02*
G75*
G03*
X13766000Y-10160000I-50000J0D01*
G01*
X14020000Y-10160000D02*
G75*
G03*
X14020000Y-10160000I-50000J0D01*
G01*
X14274000Y-10160000D02*
G75*
G03*
X14274000Y-10160000I-50000J0D01*
G01*
X14528000Y-10160000D02*
G75*
G03*
X14528000Y-10160000I-50000J0D01*
G01*
X14782000Y-10160000D02*
G75*
G03*
X14782000Y-10160000I-50000J0D01*
G01*
X15036000Y-10160000D02*
G75*
G03*
X15036000Y-10160000I-50000J0D01*
G01*
X15837500Y-6985000D02*
G75*
G03*
X15837500Y-6985000I-50000J0D01*
G01*
X15837500Y-7239000D02*
G75*
G03*
X15837500Y-7239000I-50000J0D01*
G01*
X15837500Y-7493000D02*
G75*
G03*
X15837500Y-7493000I-50000J0D01*
G01*
X15837500Y-7747000D02*
G75*
G03*
X15837500Y-7747000I-50000J0D01*
G01*
D13*
X13208000Y-4775000D02*
X13208000Y-4877000D01*
X13157000Y-4826000D02*
X13259000Y-4826000D01*
X13208000Y-5029000D02*
X13208000Y-5131000D01*
X13157000Y-5080000D02*
X13259000Y-5080000D01*
X13208000Y-5283000D02*
X13208000Y-5385000D01*
X13157000Y-5334000D02*
X13259000Y-5334000D01*
X13208000Y-5537000D02*
X13208000Y-5639000D01*
X13157000Y-5588000D02*
X13259000Y-5588000D01*
X13208000Y-5791000D02*
X13208000Y-5893000D01*
X13157000Y-5842000D02*
X13259000Y-5842000D01*
X13208000Y-6045000D02*
X13208000Y-6147000D01*
X13157000Y-6096000D02*
X13259000Y-6096000D01*
X13208000Y-6299000D02*
X13208000Y-6401000D01*
X13157000Y-6350000D02*
X13259000Y-6350000D01*
X13208000Y-6553000D02*
X13208000Y-6655000D01*
X13157000Y-6604000D02*
X13259000Y-6604000D01*
X13208000Y-6807000D02*
X13208000Y-6909000D01*
X13157000Y-6858000D02*
X13259000Y-6858000D01*
X13208000Y-7061000D02*
X13208000Y-7163000D01*
X13157000Y-7112000D02*
X13259000Y-7112000D01*
X13208000Y-7315000D02*
X13208000Y-7417000D01*
X13157000Y-7366000D02*
X13259000Y-7366000D01*
X13208000Y-7569000D02*
X13208000Y-7671000D01*
X13157000Y-7620000D02*
X13259000Y-7620000D01*
X13208000Y-7823000D02*
X13208000Y-7925000D01*
X13157000Y-7874000D02*
X13259000Y-7874000D01*
X13208000Y-8077000D02*
X13208000Y-8179000D01*
X13157000Y-8128000D02*
X13259000Y-8128000D01*
X13208000Y-8331000D02*
X13208000Y-8433000D01*
X13157000Y-8382000D02*
X13259000Y-8382000D01*
X13208000Y-8585000D02*
X13208000Y-8687000D01*
X13157000Y-8636000D02*
X13259000Y-8636000D01*
X13208000Y-8839000D02*
X13208000Y-8941000D01*
X13157000Y-8890000D02*
X13259000Y-8890000D01*
X13208000Y-9093000D02*
X13208000Y-9195000D01*
X13157000Y-9144000D02*
X13259000Y-9144000D01*
X13208000Y-9347000D02*
X13208000Y-9449000D01*
X13157000Y-9398000D02*
X13259000Y-9398000D01*
X13208000Y-9601000D02*
X13208000Y-9703000D01*
X13157000Y-9652000D02*
X13259000Y-9652000D01*
X13843000Y-9578000D02*
X13843000Y-9680000D01*
X13792000Y-9629000D02*
X13894000Y-9629000D01*
X14097000Y-9578000D02*
X14097000Y-9680000D01*
X14046000Y-9629000D02*
X14148000Y-9629000D01*
X14351000Y-9578000D02*
X14351000Y-9680000D01*
X14300000Y-9629000D02*
X14402000Y-9629000D01*
X14986000Y-4775000D02*
X14986000Y-4877000D01*
X14935000Y-4826000D02*
X15037000Y-4826000D01*
X14986000Y-5029000D02*
X14986000Y-5131000D01*
X14935000Y-5080000D02*
X15037000Y-5080000D01*
X14986000Y-5283000D02*
X14986000Y-5385000D01*
X14935000Y-5334000D02*
X15037000Y-5334000D01*
X14986000Y-5537000D02*
X14986000Y-5639000D01*
X14935000Y-5588000D02*
X15037000Y-5588000D01*
X14986000Y-5791000D02*
X14986000Y-5893000D01*
X14935000Y-5842000D02*
X15037000Y-5842000D01*
X14986000Y-6045000D02*
X14986000Y-6147000D01*
X14935000Y-6096000D02*
X15037000Y-6096000D01*
X14986000Y-6299000D02*
X14986000Y-6401000D01*
X14935000Y-6350000D02*
X15037000Y-6350000D01*
X14986000Y-6553000D02*
X14986000Y-6655000D01*
X14935000Y-6604000D02*
X15037000Y-6604000D01*
X14986000Y-6807000D02*
X14986000Y-6909000D01*
X14935000Y-6858000D02*
X15037000Y-6858000D01*
X14986000Y-7061000D02*
X14986000Y-7163000D01*
X14935000Y-7112000D02*
X15037000Y-7112000D01*
X14986000Y-7315000D02*
X14986000Y-7417000D01*
X14935000Y-7366000D02*
X15037000Y-7366000D01*
X14986000Y-7569000D02*
X14986000Y-7671000D01*
X14935000Y-7620000D02*
X15037000Y-7620000D01*
X14986000Y-7823000D02*
X14986000Y-7925000D01*
X14935000Y-7874000D02*
X15037000Y-7874000D01*
X14986000Y-8077000D02*
X14986000Y-8179000D01*
X14935000Y-8128000D02*
X15037000Y-8128000D01*
X14986000Y-8331000D02*
X14986000Y-8433000D01*
X14935000Y-8382000D02*
X15037000Y-8382000D01*
X14986000Y-8585000D02*
X14986000Y-8687000D01*
X14935000Y-8636000D02*
X15037000Y-8636000D01*
X14986000Y-8839000D02*
X14986000Y-8941000D01*
X14935000Y-8890000D02*
X15037000Y-8890000D01*
X14986000Y-9093000D02*
X14986000Y-9195000D01*
X14935000Y-9144000D02*
X15037000Y-9144000D01*
X14986000Y-9347000D02*
X14986000Y-9449000D01*
X14935000Y-9398000D02*
X15037000Y-9398000D01*
X14986000Y-9601000D02*
X14986000Y-9703000D01*
X14935000Y-9652000D02*
X15037000Y-9652000D01*
D11*
X12255777Y-14916484D02*
X12255777Y-14716484D01*
X12255777Y-14716484D02*
X12303396Y-14716484D01*
X12303396Y-14716484D02*
X12331967Y-14726008D01*
X12331967Y-14726008D02*
X12351015Y-14745055D01*
X12351015Y-14745055D02*
X12360539Y-14764103D01*
X12360539Y-14764103D02*
X12370062Y-14802198D01*
X12370062Y-14802198D02*
X12370062Y-14830769D01*
X12370062Y-14830769D02*
X12360539Y-14868865D01*
X12360539Y-14868865D02*
X12351015Y-14887912D01*
X12351015Y-14887912D02*
X12331967Y-14906960D01*
X12331967Y-14906960D02*
X12303396Y-14916484D01*
X12303396Y-14916484D02*
X12255777Y-14916484D01*
X12455777Y-14916484D02*
X12455777Y-14783150D01*
X12455777Y-14821246D02*
X12465301Y-14802198D01*
X12465301Y-14802198D02*
X12474824Y-14792674D01*
X12474824Y-14792674D02*
X12493872Y-14783150D01*
X12493872Y-14783150D02*
X12512920Y-14783150D01*
X12579586Y-14916484D02*
X12579586Y-14783150D01*
X12579586Y-14716484D02*
X12570062Y-14726008D01*
X12570062Y-14726008D02*
X12579586Y-14735531D01*
X12579586Y-14735531D02*
X12589110Y-14726008D01*
X12589110Y-14726008D02*
X12579586Y-14716484D01*
X12579586Y-14716484D02*
X12579586Y-14735531D01*
X12703396Y-14916484D02*
X12684348Y-14906960D01*
X12684348Y-14906960D02*
X12674824Y-14887912D01*
X12674824Y-14887912D02*
X12674824Y-14716484D01*
X12808158Y-14916484D02*
X12789110Y-14906960D01*
X12789110Y-14906960D02*
X12779586Y-14887912D01*
X12779586Y-14887912D02*
X12779586Y-14716484D01*
X13036729Y-14916484D02*
X13036729Y-14716484D01*
X13036729Y-14716484D02*
X13103396Y-14859341D01*
X13103396Y-14859341D02*
X13170062Y-14716484D01*
X13170062Y-14716484D02*
X13170062Y-14916484D01*
X13351015Y-14916484D02*
X13351015Y-14811722D01*
X13351015Y-14811722D02*
X13341491Y-14792674D01*
X13341491Y-14792674D02*
X13322443Y-14783150D01*
X13322443Y-14783150D02*
X13284348Y-14783150D01*
X13284348Y-14783150D02*
X13265301Y-14792674D01*
X13351015Y-14906960D02*
X13331967Y-14916484D01*
X13331967Y-14916484D02*
X13284348Y-14916484D01*
X13284348Y-14916484D02*
X13265301Y-14906960D01*
X13265301Y-14906960D02*
X13255777Y-14887912D01*
X13255777Y-14887912D02*
X13255777Y-14868865D01*
X13255777Y-14868865D02*
X13265301Y-14849817D01*
X13265301Y-14849817D02*
X13284348Y-14840293D01*
X13284348Y-14840293D02*
X13331967Y-14840293D01*
X13331967Y-14840293D02*
X13351015Y-14830769D01*
X13446253Y-14783150D02*
X13446253Y-14983150D01*
X13446253Y-14792674D02*
X13465301Y-14783150D01*
X13465301Y-14783150D02*
X13503396Y-14783150D01*
X13503396Y-14783150D02*
X13522443Y-14792674D01*
X13522443Y-14792674D02*
X13531967Y-14802198D01*
X13531967Y-14802198D02*
X13541491Y-14821246D01*
X13541491Y-14821246D02*
X13541491Y-14878388D01*
X13541491Y-14878388D02*
X13531967Y-14897436D01*
X13531967Y-14897436D02*
X13522443Y-14906960D01*
X13522443Y-14906960D02*
X13503396Y-14916484D01*
X13503396Y-14916484D02*
X13465301Y-14916484D01*
X13465301Y-14916484D02*
X13446253Y-14906960D01*
X13627205Y-14897436D02*
X13636729Y-14906960D01*
X13636729Y-14906960D02*
X13627205Y-14916484D01*
X13627205Y-14916484D02*
X13617682Y-14906960D01*
X13617682Y-14906960D02*
X13627205Y-14897436D01*
X13627205Y-14897436D02*
X13627205Y-14916484D01*
X13627205Y-14792674D02*
X13636729Y-14802198D01*
X13636729Y-14802198D02*
X13627205Y-14811722D01*
X13627205Y-14811722D02*
X13617682Y-14802198D01*
X13617682Y-14802198D02*
X13627205Y-14792674D01*
X13627205Y-14792674D02*
X13627205Y-14811722D01*
D12*
X11955000Y-15225000D02*
X11995000Y-15265000D01*
X11995000Y-15225000D02*
X11955000Y-15265000D01*
D11*
X12293872Y-15136484D02*
X12312920Y-15136484D01*
X12312920Y-15136484D02*
X12331967Y-15146008D01*
X12331967Y-15146008D02*
X12341491Y-15155531D01*
X12341491Y-15155531D02*
X12351015Y-15174579D01*
X12351015Y-15174579D02*
X12360539Y-15212674D01*
X12360539Y-15212674D02*
X12360539Y-15260293D01*
X12360539Y-15260293D02*
X12351015Y-15298388D01*
X12351015Y-15298388D02*
X12341491Y-15317436D01*
X12341491Y-15317436D02*
X12331967Y-15326960D01*
X12331967Y-15326960D02*
X12312920Y-15336484D01*
X12312920Y-15336484D02*
X12293872Y-15336484D01*
X12293872Y-15336484D02*
X12274824Y-15326960D01*
X12274824Y-15326960D02*
X12265301Y-15317436D01*
X12265301Y-15317436D02*
X12255777Y-15298388D01*
X12255777Y-15298388D02*
X12246253Y-15260293D01*
X12246253Y-15260293D02*
X12246253Y-15212674D01*
X12246253Y-15212674D02*
X12255777Y-15174579D01*
X12255777Y-15174579D02*
X12265301Y-15155531D01*
X12265301Y-15155531D02*
X12274824Y-15146008D01*
X12274824Y-15146008D02*
X12293872Y-15136484D01*
X12446253Y-15317436D02*
X12455777Y-15326960D01*
X12455777Y-15326960D02*
X12446253Y-15336484D01*
X12446253Y-15336484D02*
X12436729Y-15326960D01*
X12436729Y-15326960D02*
X12446253Y-15317436D01*
X12446253Y-15317436D02*
X12446253Y-15336484D01*
X12627205Y-15203150D02*
X12627205Y-15336484D01*
X12579586Y-15126960D02*
X12531967Y-15269817D01*
X12531967Y-15269817D02*
X12655777Y-15269817D01*
X12770062Y-15136484D02*
X12789110Y-15136484D01*
X12789110Y-15136484D02*
X12808158Y-15146008D01*
X12808158Y-15146008D02*
X12817682Y-15155531D01*
X12817682Y-15155531D02*
X12827205Y-15174579D01*
X12827205Y-15174579D02*
X12836729Y-15212674D01*
X12836729Y-15212674D02*
X12836729Y-15260293D01*
X12836729Y-15260293D02*
X12827205Y-15298388D01*
X12827205Y-15298388D02*
X12817682Y-15317436D01*
X12817682Y-15317436D02*
X12808158Y-15326960D01*
X12808158Y-15326960D02*
X12789110Y-15336484D01*
X12789110Y-15336484D02*
X12770062Y-15336484D01*
X12770062Y-15336484D02*
X12751015Y-15326960D01*
X12751015Y-15326960D02*
X12741491Y-15317436D01*
X12741491Y-15317436D02*
X12731967Y-15298388D01*
X12731967Y-15298388D02*
X12722443Y-15260293D01*
X12722443Y-15260293D02*
X12722443Y-15212674D01*
X12722443Y-15212674D02*
X12731967Y-15174579D01*
X12731967Y-15174579D02*
X12741491Y-15155531D01*
X12741491Y-15155531D02*
X12751015Y-15146008D01*
X12751015Y-15146008D02*
X12770062Y-15136484D01*
X12960539Y-15136484D02*
X12979586Y-15136484D01*
X12979586Y-15136484D02*
X12998634Y-15146008D01*
X12998634Y-15146008D02*
X13008158Y-15155531D01*
X13008158Y-15155531D02*
X13017682Y-15174579D01*
X13017682Y-15174579D02*
X13027205Y-15212674D01*
X13027205Y-15212674D02*
X13027205Y-15260293D01*
X13027205Y-15260293D02*
X13017682Y-15298388D01*
X13017682Y-15298388D02*
X13008158Y-15317436D01*
X13008158Y-15317436D02*
X12998634Y-15326960D01*
X12998634Y-15326960D02*
X12979586Y-15336484D01*
X12979586Y-15336484D02*
X12960539Y-15336484D01*
X12960539Y-15336484D02*
X12941491Y-15326960D01*
X12941491Y-15326960D02*
X12931967Y-15317436D01*
X12931967Y-15317436D02*
X12922443Y-15298388D01*
X12922443Y-15298388D02*
X12912920Y-15260293D01*
X12912920Y-15260293D02*
X12912920Y-15212674D01*
X12912920Y-15212674D02*
X12922443Y-15174579D01*
X12922443Y-15174579D02*
X12931967Y-15155531D01*
X12931967Y-15155531D02*
X12941491Y-15146008D01*
X12941491Y-15146008D02*
X12960539Y-15136484D01*
X13112920Y-15336484D02*
X13112920Y-15203150D01*
X13112920Y-15222198D02*
X13122443Y-15212674D01*
X13122443Y-15212674D02*
X13141491Y-15203150D01*
X13141491Y-15203150D02*
X13170063Y-15203150D01*
X13170063Y-15203150D02*
X13189110Y-15212674D01*
X13189110Y-15212674D02*
X13198634Y-15231722D01*
X13198634Y-15231722D02*
X13198634Y-15336484D01*
X13198634Y-15231722D02*
X13208158Y-15212674D01*
X13208158Y-15212674D02*
X13227205Y-15203150D01*
X13227205Y-15203150D02*
X13255777Y-15203150D01*
X13255777Y-15203150D02*
X13274824Y-15212674D01*
X13274824Y-15212674D02*
X13284348Y-15231722D01*
X13284348Y-15231722D02*
X13284348Y-15336484D01*
X13379586Y-15336484D02*
X13379586Y-15203150D01*
X13379586Y-15222198D02*
X13389110Y-15212674D01*
X13389110Y-15212674D02*
X13408158Y-15203150D01*
X13408158Y-15203150D02*
X13436729Y-15203150D01*
X13436729Y-15203150D02*
X13455777Y-15212674D01*
X13455777Y-15212674D02*
X13465301Y-15231722D01*
X13465301Y-15231722D02*
X13465301Y-15336484D01*
X13465301Y-15231722D02*
X13474824Y-15212674D01*
X13474824Y-15212674D02*
X13493872Y-15203150D01*
X13493872Y-15203150D02*
X13522443Y-15203150D01*
X13522443Y-15203150D02*
X13541491Y-15212674D01*
X13541491Y-15212674D02*
X13551015Y-15231722D01*
X13551015Y-15231722D02*
X13551015Y-15336484D01*
X13941491Y-15126960D02*
X13770063Y-15384103D01*
X14198634Y-15136484D02*
X14217682Y-15136484D01*
X14217682Y-15136484D02*
X14236729Y-15146008D01*
X14236729Y-15146008D02*
X14246253Y-15155531D01*
X14246253Y-15155531D02*
X14255777Y-15174579D01*
X14255777Y-15174579D02*
X14265301Y-15212674D01*
X14265301Y-15212674D02*
X14265301Y-15260293D01*
X14265301Y-15260293D02*
X14255777Y-15298388D01*
X14255777Y-15298388D02*
X14246253Y-15317436D01*
X14246253Y-15317436D02*
X14236729Y-15326960D01*
X14236729Y-15326960D02*
X14217682Y-15336484D01*
X14217682Y-15336484D02*
X14198634Y-15336484D01*
X14198634Y-15336484D02*
X14179586Y-15326960D01*
X14179586Y-15326960D02*
X14170063Y-15317436D01*
X14170063Y-15317436D02*
X14160539Y-15298388D01*
X14160539Y-15298388D02*
X14151015Y-15260293D01*
X14151015Y-15260293D02*
X14151015Y-15212674D01*
X14151015Y-15212674D02*
X14160539Y-15174579D01*
X14160539Y-15174579D02*
X14170063Y-15155531D01*
X14170063Y-15155531D02*
X14179586Y-15146008D01*
X14179586Y-15146008D02*
X14198634Y-15136484D01*
X14351015Y-15317436D02*
X14360539Y-15326960D01*
X14360539Y-15326960D02*
X14351015Y-15336484D01*
X14351015Y-15336484D02*
X14341491Y-15326960D01*
X14341491Y-15326960D02*
X14351015Y-15317436D01*
X14351015Y-15317436D02*
X14351015Y-15336484D01*
X14484348Y-15136484D02*
X14503396Y-15136484D01*
X14503396Y-15136484D02*
X14522444Y-15146008D01*
X14522444Y-15146008D02*
X14531967Y-15155531D01*
X14531967Y-15155531D02*
X14541491Y-15174579D01*
X14541491Y-15174579D02*
X14551015Y-15212674D01*
X14551015Y-15212674D02*
X14551015Y-15260293D01*
X14551015Y-15260293D02*
X14541491Y-15298388D01*
X14541491Y-15298388D02*
X14531967Y-15317436D01*
X14531967Y-15317436D02*
X14522444Y-15326960D01*
X14522444Y-15326960D02*
X14503396Y-15336484D01*
X14503396Y-15336484D02*
X14484348Y-15336484D01*
X14484348Y-15336484D02*
X14465301Y-15326960D01*
X14465301Y-15326960D02*
X14455777Y-15317436D01*
X14455777Y-15317436D02*
X14446253Y-15298388D01*
X14446253Y-15298388D02*
X14436729Y-15260293D01*
X14436729Y-15260293D02*
X14436729Y-15212674D01*
X14436729Y-15212674D02*
X14446253Y-15174579D01*
X14446253Y-15174579D02*
X14455777Y-15155531D01*
X14455777Y-15155531D02*
X14465301Y-15146008D01*
X14465301Y-15146008D02*
X14484348Y-15136484D01*
X14741491Y-15336484D02*
X14627206Y-15336484D01*
X14684348Y-15336484D02*
X14684348Y-15136484D01*
X14684348Y-15136484D02*
X14665301Y-15165055D01*
X14665301Y-15165055D02*
X14646253Y-15184103D01*
X14646253Y-15184103D02*
X14627206Y-15193627D01*
X14922444Y-15136484D02*
X14827206Y-15136484D01*
X14827206Y-15136484D02*
X14817682Y-15231722D01*
X14817682Y-15231722D02*
X14827206Y-15222198D01*
X14827206Y-15222198D02*
X14846253Y-15212674D01*
X14846253Y-15212674D02*
X14893872Y-15212674D01*
X14893872Y-15212674D02*
X14912920Y-15222198D01*
X14912920Y-15222198D02*
X14922444Y-15231722D01*
X14922444Y-15231722D02*
X14931967Y-15250769D01*
X14931967Y-15250769D02*
X14931967Y-15298388D01*
X14931967Y-15298388D02*
X14922444Y-15317436D01*
X14922444Y-15317436D02*
X14912920Y-15326960D01*
X14912920Y-15326960D02*
X14893872Y-15336484D01*
X14893872Y-15336484D02*
X14846253Y-15336484D01*
X14846253Y-15336484D02*
X14827206Y-15326960D01*
X14827206Y-15326960D02*
X14817682Y-15317436D01*
X14998634Y-15136484D02*
X15131967Y-15136484D01*
X15131967Y-15136484D02*
X15046253Y-15336484D01*
X15198634Y-15136484D02*
X15198634Y-15174579D01*
X15274825Y-15136484D02*
X15274825Y-15174579D01*
X15570063Y-15412674D02*
X15560539Y-15403150D01*
X15560539Y-15403150D02*
X15541491Y-15374579D01*
X15541491Y-15374579D02*
X15531968Y-15355531D01*
X15531968Y-15355531D02*
X15522444Y-15326960D01*
X15522444Y-15326960D02*
X15512920Y-15279341D01*
X15512920Y-15279341D02*
X15512920Y-15241246D01*
X15512920Y-15241246D02*
X15522444Y-15193627D01*
X15522444Y-15193627D02*
X15531968Y-15165055D01*
X15531968Y-15165055D02*
X15541491Y-15146008D01*
X15541491Y-15146008D02*
X15560539Y-15117436D01*
X15560539Y-15117436D02*
X15570063Y-15107912D01*
X15741491Y-15136484D02*
X15646253Y-15136484D01*
X15646253Y-15136484D02*
X15636729Y-15231722D01*
X15636729Y-15231722D02*
X15646253Y-15222198D01*
X15646253Y-15222198D02*
X15665301Y-15212674D01*
X15665301Y-15212674D02*
X15712920Y-15212674D01*
X15712920Y-15212674D02*
X15731968Y-15222198D01*
X15731968Y-15222198D02*
X15741491Y-15231722D01*
X15741491Y-15231722D02*
X15751015Y-15250769D01*
X15751015Y-15250769D02*
X15751015Y-15298388D01*
X15751015Y-15298388D02*
X15741491Y-15317436D01*
X15741491Y-15317436D02*
X15731968Y-15326960D01*
X15731968Y-15326960D02*
X15712920Y-15336484D01*
X15712920Y-15336484D02*
X15665301Y-15336484D01*
X15665301Y-15336484D02*
X15646253Y-15326960D01*
X15646253Y-15326960D02*
X15636729Y-15317436D01*
X15989110Y-15336484D02*
X15989110Y-15136484D01*
X16074825Y-15336484D02*
X16074825Y-15231722D01*
X16074825Y-15231722D02*
X16065301Y-15212674D01*
X16065301Y-15212674D02*
X16046253Y-15203150D01*
X16046253Y-15203150D02*
X16017682Y-15203150D01*
X16017682Y-15203150D02*
X15998634Y-15212674D01*
X15998634Y-15212674D02*
X15989110Y-15222198D01*
X16198634Y-15336484D02*
X16179587Y-15326960D01*
X16179587Y-15326960D02*
X16170063Y-15317436D01*
X16170063Y-15317436D02*
X16160539Y-15298388D01*
X16160539Y-15298388D02*
X16160539Y-15241246D01*
X16160539Y-15241246D02*
X16170063Y-15222198D01*
X16170063Y-15222198D02*
X16179587Y-15212674D01*
X16179587Y-15212674D02*
X16198634Y-15203150D01*
X16198634Y-15203150D02*
X16227206Y-15203150D01*
X16227206Y-15203150D02*
X16246253Y-15212674D01*
X16246253Y-15212674D02*
X16255777Y-15222198D01*
X16255777Y-15222198D02*
X16265301Y-15241246D01*
X16265301Y-15241246D02*
X16265301Y-15298388D01*
X16265301Y-15298388D02*
X16255777Y-15317436D01*
X16255777Y-15317436D02*
X16246253Y-15326960D01*
X16246253Y-15326960D02*
X16227206Y-15336484D01*
X16227206Y-15336484D02*
X16198634Y-15336484D01*
X16379587Y-15336484D02*
X16360539Y-15326960D01*
X16360539Y-15326960D02*
X16351015Y-15307912D01*
X16351015Y-15307912D02*
X16351015Y-15136484D01*
X16531968Y-15326960D02*
X16512920Y-15336484D01*
X16512920Y-15336484D02*
X16474825Y-15336484D01*
X16474825Y-15336484D02*
X16455777Y-15326960D01*
X16455777Y-15326960D02*
X16446253Y-15307912D01*
X16446253Y-15307912D02*
X16446253Y-15231722D01*
X16446253Y-15231722D02*
X16455777Y-15212674D01*
X16455777Y-15212674D02*
X16474825Y-15203150D01*
X16474825Y-15203150D02*
X16512920Y-15203150D01*
X16512920Y-15203150D02*
X16531968Y-15212674D01*
X16531968Y-15212674D02*
X16541491Y-15231722D01*
X16541491Y-15231722D02*
X16541491Y-15250769D01*
X16541491Y-15250769D02*
X16446253Y-15269817D01*
X16617682Y-15326960D02*
X16636730Y-15336484D01*
X16636730Y-15336484D02*
X16674825Y-15336484D01*
X16674825Y-15336484D02*
X16693872Y-15326960D01*
X16693872Y-15326960D02*
X16703396Y-15307912D01*
X16703396Y-15307912D02*
X16703396Y-15298388D01*
X16703396Y-15298388D02*
X16693872Y-15279341D01*
X16693872Y-15279341D02*
X16674825Y-15269817D01*
X16674825Y-15269817D02*
X16646253Y-15269817D01*
X16646253Y-15269817D02*
X16627206Y-15260293D01*
X16627206Y-15260293D02*
X16617682Y-15241246D01*
X16617682Y-15241246D02*
X16617682Y-15231722D01*
X16617682Y-15231722D02*
X16627206Y-15212674D01*
X16627206Y-15212674D02*
X16646253Y-15203150D01*
X16646253Y-15203150D02*
X16674825Y-15203150D01*
X16674825Y-15203150D02*
X16693872Y-15212674D01*
X16770063Y-15412674D02*
X16779587Y-15403150D01*
X16779587Y-15403150D02*
X16798634Y-15374579D01*
X16798634Y-15374579D02*
X16808158Y-15355531D01*
X16808158Y-15355531D02*
X16817682Y-15326960D01*
X16817682Y-15326960D02*
X16827206Y-15279341D01*
X16827206Y-15279341D02*
X16827206Y-15241246D01*
X16827206Y-15241246D02*
X16817682Y-15193627D01*
X16817682Y-15193627D02*
X16808158Y-15165055D01*
X16808158Y-15165055D02*
X16798634Y-15146008D01*
X16798634Y-15146008D02*
X16779587Y-15117436D01*
X16779587Y-15117436D02*
X16770063Y-15107912D01*
D10*
X11995000Y-15509000D02*
G75*
G03*
X11995000Y-15509000I-50000J0D01*
G01*
D11*
X12360539Y-15600484D02*
X12246253Y-15600484D01*
X12303396Y-15600484D02*
X12303396Y-15400484D01*
X12303396Y-15400484D02*
X12284348Y-15429055D01*
X12284348Y-15429055D02*
X12265301Y-15448103D01*
X12265301Y-15448103D02*
X12246253Y-15457627D01*
X12446253Y-15581436D02*
X12455777Y-15590960D01*
X12455777Y-15590960D02*
X12446253Y-15600484D01*
X12446253Y-15600484D02*
X12436729Y-15590960D01*
X12436729Y-15590960D02*
X12446253Y-15581436D01*
X12446253Y-15581436D02*
X12446253Y-15600484D01*
X12579586Y-15400484D02*
X12598634Y-15400484D01*
X12598634Y-15400484D02*
X12617682Y-15410008D01*
X12617682Y-15410008D02*
X12627205Y-15419531D01*
X12627205Y-15419531D02*
X12636729Y-15438579D01*
X12636729Y-15438579D02*
X12646253Y-15476674D01*
X12646253Y-15476674D02*
X12646253Y-15524293D01*
X12646253Y-15524293D02*
X12636729Y-15562388D01*
X12636729Y-15562388D02*
X12627205Y-15581436D01*
X12627205Y-15581436D02*
X12617682Y-15590960D01*
X12617682Y-15590960D02*
X12598634Y-15600484D01*
X12598634Y-15600484D02*
X12579586Y-15600484D01*
X12579586Y-15600484D02*
X12560539Y-15590960D01*
X12560539Y-15590960D02*
X12551015Y-15581436D01*
X12551015Y-15581436D02*
X12541491Y-15562388D01*
X12541491Y-15562388D02*
X12531967Y-15524293D01*
X12531967Y-15524293D02*
X12531967Y-15476674D01*
X12531967Y-15476674D02*
X12541491Y-15438579D01*
X12541491Y-15438579D02*
X12551015Y-15419531D01*
X12551015Y-15419531D02*
X12560539Y-15410008D01*
X12560539Y-15410008D02*
X12579586Y-15400484D01*
X12770062Y-15400484D02*
X12789110Y-15400484D01*
X12789110Y-15400484D02*
X12808158Y-15410008D01*
X12808158Y-15410008D02*
X12817682Y-15419531D01*
X12817682Y-15419531D02*
X12827205Y-15438579D01*
X12827205Y-15438579D02*
X12836729Y-15476674D01*
X12836729Y-15476674D02*
X12836729Y-15524293D01*
X12836729Y-15524293D02*
X12827205Y-15562388D01*
X12827205Y-15562388D02*
X12817682Y-15581436D01*
X12817682Y-15581436D02*
X12808158Y-15590960D01*
X12808158Y-15590960D02*
X12789110Y-15600484D01*
X12789110Y-15600484D02*
X12770062Y-15600484D01*
X12770062Y-15600484D02*
X12751015Y-15590960D01*
X12751015Y-15590960D02*
X12741491Y-15581436D01*
X12741491Y-15581436D02*
X12731967Y-15562388D01*
X12731967Y-15562388D02*
X12722443Y-15524293D01*
X12722443Y-15524293D02*
X12722443Y-15476674D01*
X12722443Y-15476674D02*
X12731967Y-15438579D01*
X12731967Y-15438579D02*
X12741491Y-15419531D01*
X12741491Y-15419531D02*
X12751015Y-15410008D01*
X12751015Y-15410008D02*
X12770062Y-15400484D01*
X12960539Y-15400484D02*
X12979586Y-15400484D01*
X12979586Y-15400484D02*
X12998634Y-15410008D01*
X12998634Y-15410008D02*
X13008158Y-15419531D01*
X13008158Y-15419531D02*
X13017682Y-15438579D01*
X13017682Y-15438579D02*
X13027205Y-15476674D01*
X13027205Y-15476674D02*
X13027205Y-15524293D01*
X13027205Y-15524293D02*
X13017682Y-15562388D01*
X13017682Y-15562388D02*
X13008158Y-15581436D01*
X13008158Y-15581436D02*
X12998634Y-15590960D01*
X12998634Y-15590960D02*
X12979586Y-15600484D01*
X12979586Y-15600484D02*
X12960539Y-15600484D01*
X12960539Y-15600484D02*
X12941491Y-15590960D01*
X12941491Y-15590960D02*
X12931967Y-15581436D01*
X12931967Y-15581436D02*
X12922443Y-15562388D01*
X12922443Y-15562388D02*
X12912920Y-15524293D01*
X12912920Y-15524293D02*
X12912920Y-15476674D01*
X12912920Y-15476674D02*
X12922443Y-15438579D01*
X12922443Y-15438579D02*
X12931967Y-15419531D01*
X12931967Y-15419531D02*
X12941491Y-15410008D01*
X12941491Y-15410008D02*
X12960539Y-15400484D01*
X13112920Y-15600484D02*
X13112920Y-15467150D01*
X13112920Y-15486198D02*
X13122443Y-15476674D01*
X13122443Y-15476674D02*
X13141491Y-15467150D01*
X13141491Y-15467150D02*
X13170063Y-15467150D01*
X13170063Y-15467150D02*
X13189110Y-15476674D01*
X13189110Y-15476674D02*
X13198634Y-15495722D01*
X13198634Y-15495722D02*
X13198634Y-15600484D01*
X13198634Y-15495722D02*
X13208158Y-15476674D01*
X13208158Y-15476674D02*
X13227205Y-15467150D01*
X13227205Y-15467150D02*
X13255777Y-15467150D01*
X13255777Y-15467150D02*
X13274824Y-15476674D01*
X13274824Y-15476674D02*
X13284348Y-15495722D01*
X13284348Y-15495722D02*
X13284348Y-15600484D01*
X13379586Y-15600484D02*
X13379586Y-15467150D01*
X13379586Y-15486198D02*
X13389110Y-15476674D01*
X13389110Y-15476674D02*
X13408158Y-15467150D01*
X13408158Y-15467150D02*
X13436729Y-15467150D01*
X13436729Y-15467150D02*
X13455777Y-15476674D01*
X13455777Y-15476674D02*
X13465301Y-15495722D01*
X13465301Y-15495722D02*
X13465301Y-15600484D01*
X13465301Y-15495722D02*
X13474824Y-15476674D01*
X13474824Y-15476674D02*
X13493872Y-15467150D01*
X13493872Y-15467150D02*
X13522443Y-15467150D01*
X13522443Y-15467150D02*
X13541491Y-15476674D01*
X13541491Y-15476674D02*
X13551015Y-15495722D01*
X13551015Y-15495722D02*
X13551015Y-15600484D01*
X13941491Y-15390960D02*
X13770063Y-15648103D01*
X14198634Y-15400484D02*
X14217682Y-15400484D01*
X14217682Y-15400484D02*
X14236729Y-15410008D01*
X14236729Y-15410008D02*
X14246253Y-15419531D01*
X14246253Y-15419531D02*
X14255777Y-15438579D01*
X14255777Y-15438579D02*
X14265301Y-15476674D01*
X14265301Y-15476674D02*
X14265301Y-15524293D01*
X14265301Y-15524293D02*
X14255777Y-15562388D01*
X14255777Y-15562388D02*
X14246253Y-15581436D01*
X14246253Y-15581436D02*
X14236729Y-15590960D01*
X14236729Y-15590960D02*
X14217682Y-15600484D01*
X14217682Y-15600484D02*
X14198634Y-15600484D01*
X14198634Y-15600484D02*
X14179586Y-15590960D01*
X14179586Y-15590960D02*
X14170063Y-15581436D01*
X14170063Y-15581436D02*
X14160539Y-15562388D01*
X14160539Y-15562388D02*
X14151015Y-15524293D01*
X14151015Y-15524293D02*
X14151015Y-15476674D01*
X14151015Y-15476674D02*
X14160539Y-15438579D01*
X14160539Y-15438579D02*
X14170063Y-15419531D01*
X14170063Y-15419531D02*
X14179586Y-15410008D01*
X14179586Y-15410008D02*
X14198634Y-15400484D01*
X14351015Y-15581436D02*
X14360539Y-15590960D01*
X14360539Y-15590960D02*
X14351015Y-15600484D01*
X14351015Y-15600484D02*
X14341491Y-15590960D01*
X14341491Y-15590960D02*
X14351015Y-15581436D01*
X14351015Y-15581436D02*
X14351015Y-15600484D01*
X14484348Y-15400484D02*
X14503396Y-15400484D01*
X14503396Y-15400484D02*
X14522444Y-15410008D01*
X14522444Y-15410008D02*
X14531967Y-15419531D01*
X14531967Y-15419531D02*
X14541491Y-15438579D01*
X14541491Y-15438579D02*
X14551015Y-15476674D01*
X14551015Y-15476674D02*
X14551015Y-15524293D01*
X14551015Y-15524293D02*
X14541491Y-15562388D01*
X14541491Y-15562388D02*
X14531967Y-15581436D01*
X14531967Y-15581436D02*
X14522444Y-15590960D01*
X14522444Y-15590960D02*
X14503396Y-15600484D01*
X14503396Y-15600484D02*
X14484348Y-15600484D01*
X14484348Y-15600484D02*
X14465301Y-15590960D01*
X14465301Y-15590960D02*
X14455777Y-15581436D01*
X14455777Y-15581436D02*
X14446253Y-15562388D01*
X14446253Y-15562388D02*
X14436729Y-15524293D01*
X14436729Y-15524293D02*
X14436729Y-15476674D01*
X14436729Y-15476674D02*
X14446253Y-15438579D01*
X14446253Y-15438579D02*
X14455777Y-15419531D01*
X14455777Y-15419531D02*
X14465301Y-15410008D01*
X14465301Y-15410008D02*
X14484348Y-15400484D01*
X14617682Y-15400484D02*
X14741491Y-15400484D01*
X14741491Y-15400484D02*
X14674825Y-15476674D01*
X14674825Y-15476674D02*
X14703396Y-15476674D01*
X14703396Y-15476674D02*
X14722444Y-15486198D01*
X14722444Y-15486198D02*
X14731967Y-15495722D01*
X14731967Y-15495722D02*
X14741491Y-15514769D01*
X14741491Y-15514769D02*
X14741491Y-15562388D01*
X14741491Y-15562388D02*
X14731967Y-15581436D01*
X14731967Y-15581436D02*
X14722444Y-15590960D01*
X14722444Y-15590960D02*
X14703396Y-15600484D01*
X14703396Y-15600484D02*
X14646253Y-15600484D01*
X14646253Y-15600484D02*
X14627206Y-15590960D01*
X14627206Y-15590960D02*
X14617682Y-15581436D01*
X14836729Y-15600484D02*
X14874825Y-15600484D01*
X14874825Y-15600484D02*
X14893872Y-15590960D01*
X14893872Y-15590960D02*
X14903396Y-15581436D01*
X14903396Y-15581436D02*
X14922444Y-15552865D01*
X14922444Y-15552865D02*
X14931967Y-15514769D01*
X14931967Y-15514769D02*
X14931967Y-15438579D01*
X14931967Y-15438579D02*
X14922444Y-15419531D01*
X14922444Y-15419531D02*
X14912920Y-15410008D01*
X14912920Y-15410008D02*
X14893872Y-15400484D01*
X14893872Y-15400484D02*
X14855777Y-15400484D01*
X14855777Y-15400484D02*
X14836729Y-15410008D01*
X14836729Y-15410008D02*
X14827206Y-15419531D01*
X14827206Y-15419531D02*
X14817682Y-15438579D01*
X14817682Y-15438579D02*
X14817682Y-15486198D01*
X14817682Y-15486198D02*
X14827206Y-15505246D01*
X14827206Y-15505246D02*
X14836729Y-15514769D01*
X14836729Y-15514769D02*
X14855777Y-15524293D01*
X14855777Y-15524293D02*
X14893872Y-15524293D01*
X14893872Y-15524293D02*
X14912920Y-15514769D01*
X14912920Y-15514769D02*
X14922444Y-15505246D01*
X14922444Y-15505246D02*
X14931967Y-15486198D01*
X15103396Y-15467150D02*
X15103396Y-15600484D01*
X15055777Y-15390960D02*
X15008158Y-15533817D01*
X15008158Y-15533817D02*
X15131967Y-15533817D01*
X15198634Y-15400484D02*
X15198634Y-15438579D01*
X15274825Y-15400484D02*
X15274825Y-15438579D01*
X15570063Y-15676674D02*
X15560539Y-15667150D01*
X15560539Y-15667150D02*
X15541491Y-15638579D01*
X15541491Y-15638579D02*
X15531968Y-15619531D01*
X15531968Y-15619531D02*
X15522444Y-15590960D01*
X15522444Y-15590960D02*
X15512920Y-15543341D01*
X15512920Y-15543341D02*
X15512920Y-15505246D01*
X15512920Y-15505246D02*
X15522444Y-15457627D01*
X15522444Y-15457627D02*
X15531968Y-15429055D01*
X15531968Y-15429055D02*
X15541491Y-15410008D01*
X15541491Y-15410008D02*
X15560539Y-15381436D01*
X15560539Y-15381436D02*
X15570063Y-15371912D01*
X15751015Y-15600484D02*
X15636729Y-15600484D01*
X15693872Y-15600484D02*
X15693872Y-15400484D01*
X15693872Y-15400484D02*
X15674825Y-15429055D01*
X15674825Y-15429055D02*
X15655777Y-15448103D01*
X15655777Y-15448103D02*
X15636729Y-15457627D01*
X15931968Y-15400484D02*
X15836729Y-15400484D01*
X15836729Y-15400484D02*
X15827206Y-15495722D01*
X15827206Y-15495722D02*
X15836729Y-15486198D01*
X15836729Y-15486198D02*
X15855777Y-15476674D01*
X15855777Y-15476674D02*
X15903396Y-15476674D01*
X15903396Y-15476674D02*
X15922444Y-15486198D01*
X15922444Y-15486198D02*
X15931968Y-15495722D01*
X15931968Y-15495722D02*
X15941491Y-15514769D01*
X15941491Y-15514769D02*
X15941491Y-15562388D01*
X15941491Y-15562388D02*
X15931968Y-15581436D01*
X15931968Y-15581436D02*
X15922444Y-15590960D01*
X15922444Y-15590960D02*
X15903396Y-15600484D01*
X15903396Y-15600484D02*
X15855777Y-15600484D01*
X15855777Y-15600484D02*
X15836729Y-15590960D01*
X15836729Y-15590960D02*
X15827206Y-15581436D01*
X16179587Y-15600484D02*
X16179587Y-15400484D01*
X16265301Y-15600484D02*
X16265301Y-15495722D01*
X16265301Y-15495722D02*
X16255777Y-15476674D01*
X16255777Y-15476674D02*
X16236730Y-15467150D01*
X16236730Y-15467150D02*
X16208158Y-15467150D01*
X16208158Y-15467150D02*
X16189110Y-15476674D01*
X16189110Y-15476674D02*
X16179587Y-15486198D01*
X16389110Y-15600484D02*
X16370063Y-15590960D01*
X16370063Y-15590960D02*
X16360539Y-15581436D01*
X16360539Y-15581436D02*
X16351015Y-15562388D01*
X16351015Y-15562388D02*
X16351015Y-15505246D01*
X16351015Y-15505246D02*
X16360539Y-15486198D01*
X16360539Y-15486198D02*
X16370063Y-15476674D01*
X16370063Y-15476674D02*
X16389110Y-15467150D01*
X16389110Y-15467150D02*
X16417682Y-15467150D01*
X16417682Y-15467150D02*
X16436730Y-15476674D01*
X16436730Y-15476674D02*
X16446253Y-15486198D01*
X16446253Y-15486198D02*
X16455777Y-15505246D01*
X16455777Y-15505246D02*
X16455777Y-15562388D01*
X16455777Y-15562388D02*
X16446253Y-15581436D01*
X16446253Y-15581436D02*
X16436730Y-15590960D01*
X16436730Y-15590960D02*
X16417682Y-15600484D01*
X16417682Y-15600484D02*
X16389110Y-15600484D01*
X16570063Y-15600484D02*
X16551015Y-15590960D01*
X16551015Y-15590960D02*
X16541491Y-15571912D01*
X16541491Y-15571912D02*
X16541491Y-15400484D01*
X16722444Y-15590960D02*
X16703396Y-15600484D01*
X16703396Y-15600484D02*
X16665301Y-15600484D01*
X16665301Y-15600484D02*
X16646253Y-15590960D01*
X16646253Y-15590960D02*
X16636730Y-15571912D01*
X16636730Y-15571912D02*
X16636730Y-15495722D01*
X16636730Y-15495722D02*
X16646253Y-15476674D01*
X16646253Y-15476674D02*
X16665301Y-15467150D01*
X16665301Y-15467150D02*
X16703396Y-15467150D01*
X16703396Y-15467150D02*
X16722444Y-15476674D01*
X16722444Y-15476674D02*
X16731968Y-15495722D01*
X16731968Y-15495722D02*
X16731968Y-15514769D01*
X16731968Y-15514769D02*
X16636730Y-15533817D01*
X16808158Y-15590960D02*
X16827206Y-15600484D01*
X16827206Y-15600484D02*
X16865301Y-15600484D01*
X16865301Y-15600484D02*
X16884349Y-15590960D01*
X16884349Y-15590960D02*
X16893873Y-15571912D01*
X16893873Y-15571912D02*
X16893873Y-15562388D01*
X16893873Y-15562388D02*
X16884349Y-15543341D01*
X16884349Y-15543341D02*
X16865301Y-15533817D01*
X16865301Y-15533817D02*
X16836730Y-15533817D01*
X16836730Y-15533817D02*
X16817682Y-15524293D01*
X16817682Y-15524293D02*
X16808158Y-15505246D01*
X16808158Y-15505246D02*
X16808158Y-15495722D01*
X16808158Y-15495722D02*
X16817682Y-15476674D01*
X16817682Y-15476674D02*
X16836730Y-15467150D01*
X16836730Y-15467150D02*
X16865301Y-15467150D01*
X16865301Y-15467150D02*
X16884349Y-15476674D01*
X16960539Y-15676674D02*
X16970063Y-15667150D01*
X16970063Y-15667150D02*
X16989111Y-15638579D01*
X16989111Y-15638579D02*
X16998634Y-15619531D01*
X16998634Y-15619531D02*
X17008158Y-15590960D01*
X17008158Y-15590960D02*
X17017682Y-15543341D01*
X17017682Y-15543341D02*
X17017682Y-15505246D01*
X17017682Y-15505246D02*
X17008158Y-15457627D01*
X17008158Y-15457627D02*
X16998634Y-15429055D01*
X16998634Y-15429055D02*
X16989111Y-15410008D01*
X16989111Y-15410008D02*
X16970063Y-15381436D01*
X16970063Y-15381436D02*
X16960539Y-15371912D01*
D13*
X11944000Y-15722000D02*
X11944000Y-15824000D01*
X11893000Y-15773000D02*
X11995000Y-15773000D01*
D11*
X12360539Y-15864484D02*
X12246253Y-15864484D01*
X12303396Y-15864484D02*
X12303396Y-15664484D01*
X12303396Y-15664484D02*
X12284348Y-15693055D01*
X12284348Y-15693055D02*
X12265301Y-15712103D01*
X12265301Y-15712103D02*
X12246253Y-15721627D01*
X12446253Y-15845436D02*
X12455777Y-15854960D01*
X12455777Y-15854960D02*
X12446253Y-15864484D01*
X12446253Y-15864484D02*
X12436729Y-15854960D01*
X12436729Y-15854960D02*
X12446253Y-15845436D01*
X12446253Y-15845436D02*
X12446253Y-15864484D01*
X12579586Y-15664484D02*
X12598634Y-15664484D01*
X12598634Y-15664484D02*
X12617682Y-15674008D01*
X12617682Y-15674008D02*
X12627205Y-15683531D01*
X12627205Y-15683531D02*
X12636729Y-15702579D01*
X12636729Y-15702579D02*
X12646253Y-15740674D01*
X12646253Y-15740674D02*
X12646253Y-15788293D01*
X12646253Y-15788293D02*
X12636729Y-15826388D01*
X12636729Y-15826388D02*
X12627205Y-15845436D01*
X12627205Y-15845436D02*
X12617682Y-15854960D01*
X12617682Y-15854960D02*
X12598634Y-15864484D01*
X12598634Y-15864484D02*
X12579586Y-15864484D01*
X12579586Y-15864484D02*
X12560539Y-15854960D01*
X12560539Y-15854960D02*
X12551015Y-15845436D01*
X12551015Y-15845436D02*
X12541491Y-15826388D01*
X12541491Y-15826388D02*
X12531967Y-15788293D01*
X12531967Y-15788293D02*
X12531967Y-15740674D01*
X12531967Y-15740674D02*
X12541491Y-15702579D01*
X12541491Y-15702579D02*
X12551015Y-15683531D01*
X12551015Y-15683531D02*
X12560539Y-15674008D01*
X12560539Y-15674008D02*
X12579586Y-15664484D01*
X12722443Y-15683531D02*
X12731967Y-15674008D01*
X12731967Y-15674008D02*
X12751015Y-15664484D01*
X12751015Y-15664484D02*
X12798634Y-15664484D01*
X12798634Y-15664484D02*
X12817682Y-15674008D01*
X12817682Y-15674008D02*
X12827205Y-15683531D01*
X12827205Y-15683531D02*
X12836729Y-15702579D01*
X12836729Y-15702579D02*
X12836729Y-15721627D01*
X12836729Y-15721627D02*
X12827205Y-15750198D01*
X12827205Y-15750198D02*
X12712920Y-15864484D01*
X12712920Y-15864484D02*
X12836729Y-15864484D01*
X12960539Y-15664484D02*
X12979586Y-15664484D01*
X12979586Y-15664484D02*
X12998634Y-15674008D01*
X12998634Y-15674008D02*
X13008158Y-15683531D01*
X13008158Y-15683531D02*
X13017682Y-15702579D01*
X13017682Y-15702579D02*
X13027205Y-15740674D01*
X13027205Y-15740674D02*
X13027205Y-15788293D01*
X13027205Y-15788293D02*
X13017682Y-15826388D01*
X13017682Y-15826388D02*
X13008158Y-15845436D01*
X13008158Y-15845436D02*
X12998634Y-15854960D01*
X12998634Y-15854960D02*
X12979586Y-15864484D01*
X12979586Y-15864484D02*
X12960539Y-15864484D01*
X12960539Y-15864484D02*
X12941491Y-15854960D01*
X12941491Y-15854960D02*
X12931967Y-15845436D01*
X12931967Y-15845436D02*
X12922443Y-15826388D01*
X12922443Y-15826388D02*
X12912920Y-15788293D01*
X12912920Y-15788293D02*
X12912920Y-15740674D01*
X12912920Y-15740674D02*
X12922443Y-15702579D01*
X12922443Y-15702579D02*
X12931967Y-15683531D01*
X12931967Y-15683531D02*
X12941491Y-15674008D01*
X12941491Y-15674008D02*
X12960539Y-15664484D01*
X13112920Y-15864484D02*
X13112920Y-15731150D01*
X13112920Y-15750198D02*
X13122443Y-15740674D01*
X13122443Y-15740674D02*
X13141491Y-15731150D01*
X13141491Y-15731150D02*
X13170063Y-15731150D01*
X13170063Y-15731150D02*
X13189110Y-15740674D01*
X13189110Y-15740674D02*
X13198634Y-15759722D01*
X13198634Y-15759722D02*
X13198634Y-15864484D01*
X13198634Y-15759722D02*
X13208158Y-15740674D01*
X13208158Y-15740674D02*
X13227205Y-15731150D01*
X13227205Y-15731150D02*
X13255777Y-15731150D01*
X13255777Y-15731150D02*
X13274824Y-15740674D01*
X13274824Y-15740674D02*
X13284348Y-15759722D01*
X13284348Y-15759722D02*
X13284348Y-15864484D01*
X13379586Y-15864484D02*
X13379586Y-15731150D01*
X13379586Y-15750198D02*
X13389110Y-15740674D01*
X13389110Y-15740674D02*
X13408158Y-15731150D01*
X13408158Y-15731150D02*
X13436729Y-15731150D01*
X13436729Y-15731150D02*
X13455777Y-15740674D01*
X13455777Y-15740674D02*
X13465301Y-15759722D01*
X13465301Y-15759722D02*
X13465301Y-15864484D01*
X13465301Y-15759722D02*
X13474824Y-15740674D01*
X13474824Y-15740674D02*
X13493872Y-15731150D01*
X13493872Y-15731150D02*
X13522443Y-15731150D01*
X13522443Y-15731150D02*
X13541491Y-15740674D01*
X13541491Y-15740674D02*
X13551015Y-15759722D01*
X13551015Y-15759722D02*
X13551015Y-15864484D01*
X13941491Y-15654960D02*
X13770063Y-15912103D01*
X14198634Y-15664484D02*
X14217682Y-15664484D01*
X14217682Y-15664484D02*
X14236729Y-15674008D01*
X14236729Y-15674008D02*
X14246253Y-15683531D01*
X14246253Y-15683531D02*
X14255777Y-15702579D01*
X14255777Y-15702579D02*
X14265301Y-15740674D01*
X14265301Y-15740674D02*
X14265301Y-15788293D01*
X14265301Y-15788293D02*
X14255777Y-15826388D01*
X14255777Y-15826388D02*
X14246253Y-15845436D01*
X14246253Y-15845436D02*
X14236729Y-15854960D01*
X14236729Y-15854960D02*
X14217682Y-15864484D01*
X14217682Y-15864484D02*
X14198634Y-15864484D01*
X14198634Y-15864484D02*
X14179586Y-15854960D01*
X14179586Y-15854960D02*
X14170063Y-15845436D01*
X14170063Y-15845436D02*
X14160539Y-15826388D01*
X14160539Y-15826388D02*
X14151015Y-15788293D01*
X14151015Y-15788293D02*
X14151015Y-15740674D01*
X14151015Y-15740674D02*
X14160539Y-15702579D01*
X14160539Y-15702579D02*
X14170063Y-15683531D01*
X14170063Y-15683531D02*
X14179586Y-15674008D01*
X14179586Y-15674008D02*
X14198634Y-15664484D01*
X14351015Y-15845436D02*
X14360539Y-15854960D01*
X14360539Y-15854960D02*
X14351015Y-15864484D01*
X14351015Y-15864484D02*
X14341491Y-15854960D01*
X14341491Y-15854960D02*
X14351015Y-15845436D01*
X14351015Y-15845436D02*
X14351015Y-15864484D01*
X14484348Y-15664484D02*
X14503396Y-15664484D01*
X14503396Y-15664484D02*
X14522444Y-15674008D01*
X14522444Y-15674008D02*
X14531967Y-15683531D01*
X14531967Y-15683531D02*
X14541491Y-15702579D01*
X14541491Y-15702579D02*
X14551015Y-15740674D01*
X14551015Y-15740674D02*
X14551015Y-15788293D01*
X14551015Y-15788293D02*
X14541491Y-15826388D01*
X14541491Y-15826388D02*
X14531967Y-15845436D01*
X14531967Y-15845436D02*
X14522444Y-15854960D01*
X14522444Y-15854960D02*
X14503396Y-15864484D01*
X14503396Y-15864484D02*
X14484348Y-15864484D01*
X14484348Y-15864484D02*
X14465301Y-15854960D01*
X14465301Y-15854960D02*
X14455777Y-15845436D01*
X14455777Y-15845436D02*
X14446253Y-15826388D01*
X14446253Y-15826388D02*
X14436729Y-15788293D01*
X14436729Y-15788293D02*
X14436729Y-15740674D01*
X14436729Y-15740674D02*
X14446253Y-15702579D01*
X14446253Y-15702579D02*
X14455777Y-15683531D01*
X14455777Y-15683531D02*
X14465301Y-15674008D01*
X14465301Y-15674008D02*
X14484348Y-15664484D01*
X14722444Y-15731150D02*
X14722444Y-15864484D01*
X14674825Y-15654960D02*
X14627206Y-15797817D01*
X14627206Y-15797817D02*
X14751015Y-15797817D01*
X14865301Y-15664484D02*
X14884348Y-15664484D01*
X14884348Y-15664484D02*
X14903396Y-15674008D01*
X14903396Y-15674008D02*
X14912920Y-15683531D01*
X14912920Y-15683531D02*
X14922444Y-15702579D01*
X14922444Y-15702579D02*
X14931967Y-15740674D01*
X14931967Y-15740674D02*
X14931967Y-15788293D01*
X14931967Y-15788293D02*
X14922444Y-15826388D01*
X14922444Y-15826388D02*
X14912920Y-15845436D01*
X14912920Y-15845436D02*
X14903396Y-15854960D01*
X14903396Y-15854960D02*
X14884348Y-15864484D01*
X14884348Y-15864484D02*
X14865301Y-15864484D01*
X14865301Y-15864484D02*
X14846253Y-15854960D01*
X14846253Y-15854960D02*
X14836729Y-15845436D01*
X14836729Y-15845436D02*
X14827206Y-15826388D01*
X14827206Y-15826388D02*
X14817682Y-15788293D01*
X14817682Y-15788293D02*
X14817682Y-15740674D01*
X14817682Y-15740674D02*
X14827206Y-15702579D01*
X14827206Y-15702579D02*
X14836729Y-15683531D01*
X14836729Y-15683531D02*
X14846253Y-15674008D01*
X14846253Y-15674008D02*
X14865301Y-15664484D01*
X15008158Y-15683531D02*
X15017682Y-15674008D01*
X15017682Y-15674008D02*
X15036729Y-15664484D01*
X15036729Y-15664484D02*
X15084348Y-15664484D01*
X15084348Y-15664484D02*
X15103396Y-15674008D01*
X15103396Y-15674008D02*
X15112920Y-15683531D01*
X15112920Y-15683531D02*
X15122444Y-15702579D01*
X15122444Y-15702579D02*
X15122444Y-15721627D01*
X15122444Y-15721627D02*
X15112920Y-15750198D01*
X15112920Y-15750198D02*
X14998634Y-15864484D01*
X14998634Y-15864484D02*
X15122444Y-15864484D01*
X15198634Y-15664484D02*
X15198634Y-15702579D01*
X15274825Y-15664484D02*
X15274825Y-15702579D01*
X15570063Y-15940674D02*
X15560539Y-15931150D01*
X15560539Y-15931150D02*
X15541491Y-15902579D01*
X15541491Y-15902579D02*
X15531968Y-15883531D01*
X15531968Y-15883531D02*
X15522444Y-15854960D01*
X15522444Y-15854960D02*
X15512920Y-15807341D01*
X15512920Y-15807341D02*
X15512920Y-15769246D01*
X15512920Y-15769246D02*
X15522444Y-15721627D01*
X15522444Y-15721627D02*
X15531968Y-15693055D01*
X15531968Y-15693055D02*
X15541491Y-15674008D01*
X15541491Y-15674008D02*
X15560539Y-15645436D01*
X15560539Y-15645436D02*
X15570063Y-15635912D01*
X15731968Y-15731150D02*
X15731968Y-15864484D01*
X15684348Y-15654960D02*
X15636729Y-15797817D01*
X15636729Y-15797817D02*
X15760539Y-15797817D01*
X15817682Y-15664484D02*
X15941491Y-15664484D01*
X15941491Y-15664484D02*
X15874825Y-15740674D01*
X15874825Y-15740674D02*
X15903396Y-15740674D01*
X15903396Y-15740674D02*
X15922444Y-15750198D01*
X15922444Y-15750198D02*
X15931968Y-15759722D01*
X15931968Y-15759722D02*
X15941491Y-15778769D01*
X15941491Y-15778769D02*
X15941491Y-15826388D01*
X15941491Y-15826388D02*
X15931968Y-15845436D01*
X15931968Y-15845436D02*
X15922444Y-15854960D01*
X15922444Y-15854960D02*
X15903396Y-15864484D01*
X15903396Y-15864484D02*
X15846253Y-15864484D01*
X15846253Y-15864484D02*
X15827206Y-15854960D01*
X15827206Y-15854960D02*
X15817682Y-15845436D01*
X16179587Y-15864484D02*
X16179587Y-15664484D01*
X16265301Y-15864484D02*
X16265301Y-15759722D01*
X16265301Y-15759722D02*
X16255777Y-15740674D01*
X16255777Y-15740674D02*
X16236730Y-15731150D01*
X16236730Y-15731150D02*
X16208158Y-15731150D01*
X16208158Y-15731150D02*
X16189110Y-15740674D01*
X16189110Y-15740674D02*
X16179587Y-15750198D01*
X16389110Y-15864484D02*
X16370063Y-15854960D01*
X16370063Y-15854960D02*
X16360539Y-15845436D01*
X16360539Y-15845436D02*
X16351015Y-15826388D01*
X16351015Y-15826388D02*
X16351015Y-15769246D01*
X16351015Y-15769246D02*
X16360539Y-15750198D01*
X16360539Y-15750198D02*
X16370063Y-15740674D01*
X16370063Y-15740674D02*
X16389110Y-15731150D01*
X16389110Y-15731150D02*
X16417682Y-15731150D01*
X16417682Y-15731150D02*
X16436730Y-15740674D01*
X16436730Y-15740674D02*
X16446253Y-15750198D01*
X16446253Y-15750198D02*
X16455777Y-15769246D01*
X16455777Y-15769246D02*
X16455777Y-15826388D01*
X16455777Y-15826388D02*
X16446253Y-15845436D01*
X16446253Y-15845436D02*
X16436730Y-15854960D01*
X16436730Y-15854960D02*
X16417682Y-15864484D01*
X16417682Y-15864484D02*
X16389110Y-15864484D01*
X16570063Y-15864484D02*
X16551015Y-15854960D01*
X16551015Y-15854960D02*
X16541491Y-15835912D01*
X16541491Y-15835912D02*
X16541491Y-15664484D01*
X16722444Y-15854960D02*
X16703396Y-15864484D01*
X16703396Y-15864484D02*
X16665301Y-15864484D01*
X16665301Y-15864484D02*
X16646253Y-15854960D01*
X16646253Y-15854960D02*
X16636730Y-15835912D01*
X16636730Y-15835912D02*
X16636730Y-15759722D01*
X16636730Y-15759722D02*
X16646253Y-15740674D01*
X16646253Y-15740674D02*
X16665301Y-15731150D01*
X16665301Y-15731150D02*
X16703396Y-15731150D01*
X16703396Y-15731150D02*
X16722444Y-15740674D01*
X16722444Y-15740674D02*
X16731968Y-15759722D01*
X16731968Y-15759722D02*
X16731968Y-15778769D01*
X16731968Y-15778769D02*
X16636730Y-15797817D01*
X16808158Y-15854960D02*
X16827206Y-15864484D01*
X16827206Y-15864484D02*
X16865301Y-15864484D01*
X16865301Y-15864484D02*
X16884349Y-15854960D01*
X16884349Y-15854960D02*
X16893873Y-15835912D01*
X16893873Y-15835912D02*
X16893873Y-15826388D01*
X16893873Y-15826388D02*
X16884349Y-15807341D01*
X16884349Y-15807341D02*
X16865301Y-15797817D01*
X16865301Y-15797817D02*
X16836730Y-15797817D01*
X16836730Y-15797817D02*
X16817682Y-15788293D01*
X16817682Y-15788293D02*
X16808158Y-15769246D01*
X16808158Y-15769246D02*
X16808158Y-15759722D01*
X16808158Y-15759722D02*
X16817682Y-15740674D01*
X16817682Y-15740674D02*
X16836730Y-15731150D01*
X16836730Y-15731150D02*
X16865301Y-15731150D01*
X16865301Y-15731150D02*
X16884349Y-15740674D01*
X16960539Y-15940674D02*
X16970063Y-15931150D01*
X16970063Y-15931150D02*
X16989111Y-15902579D01*
X16989111Y-15902579D02*
X16998634Y-15883531D01*
X16998634Y-15883531D02*
X17008158Y-15854960D01*
X17008158Y-15854960D02*
X17017682Y-15807341D01*
X17017682Y-15807341D02*
X17017682Y-15769246D01*
X17017682Y-15769246D02*
X17008158Y-15721627D01*
X17008158Y-15721627D02*
X16998634Y-15693055D01*
X16998634Y-15693055D02*
X16989111Y-15674008D01*
X16989111Y-15674008D02*
X16970063Y-15645436D01*
X16970063Y-15645436D02*
X16960539Y-15635912D01*
M02*
